<?xml version="1.0" encoding="UTF-8"?>
<svg version="1.1" xmlns="http://www.w3.org/2000/svg" width="1024" height="1024">
<path d="M0 0 C3.52082893 0.02528932 7.04165408 0.04541944 10.56252289 0.06426239 C15.98172092 0.09456973 21.40056552 0.14021929 26.81952667 0.19912338 C28.71327587 0.21811489 30.60707329 0.23297981 32.50089264 0.24272537 C45.40875573 0.31632241 57.9283758 1.56790508 70.7001152 3.42079163 C78.40436362 4.54923827 78.40436362 4.54923827 86.17586517 4.77550507 C86.17586517 5.43550507 86.17586517 6.09550507 86.17586517 6.77550507 C87.82586517 7.10550507 89.47586517 7.43550507 91.17586517 7.77550507 C91.50586517 7.11550507 91.83586517 6.45550507 92.17586517 5.77550507 C92.50586517 7.09550507 92.83586517 8.41550507 93.17586517 9.77550507 C99.39221819 11.1995953 99.39221819 11.1995953 105.67586517 12.27550507 C106.50086517 12.44050507 107.32586517 12.60550507 108.17586517 12.77550507 C108.50586517 13.43550507 108.83586517 14.09550507 109.17586517 14.77550507 C111.45658629 15.8750343 113.71235021 16.87879384 116.05086517 17.83800507 C117.00799408 18.24115936 117.00799408 18.24115936 117.98445892 18.65245819 C120.69285095 19.78613795 123.38959458 20.8467482 126.17586517 21.77550507 C127.51203236 23.10599851 128.84494075 24.43976717 130.17586517 25.77550507 C132.00353297 27.04373814 133.86053839 28.27029751 135.73836517 29.46300507 C152.85922531 40.73164392 167.60221858 55.15276074 178.17586517 72.77550507 C178.83586517 73.43550507 179.49586517 74.09550507 180.17586517 74.77550507 C180.87890269 76.09002417 181.54118298 77.42665343 182.17586517 78.77550507 C182.54324799 79.51437958 182.9106308 80.25325409 183.28914642 81.01451874 C184.59484819 83.65914961 185.8856876 86.3107686 187.17586517 88.96300507 C187.85262299 90.32522186 187.85262299 90.32522186 188.54305267 91.71495819 C190.65377083 96.07690089 192.39773891 100.12572164 193.36336517 104.88878632 C193.63149017 106.1714035 193.89961517 107.45402069 194.17586517 108.77550507 C194.83586517 109.10550507 195.49586517 109.43550507 196.17586517 109.77550507 C196.83016205 111.77819061 196.83016205 111.77819061 197.39461517 114.41222382 C197.60376556 115.3761203 197.81291595 116.34001678 198.02840424 117.33312225 C198.24206635 118.36598358 198.45572845 119.39884491 198.67586517 120.46300507 C198.89726166 121.50488983 199.11865814 122.5467746 199.34676361 123.62023163 C200.77459562 130.46661184 201.96969727 137.2849283 202.81649017 144.22863007 C203.11394237 146.89069609 203.11394237 146.89069609 204.17586517 149.77550507 C204.2700895 151.59033872 204.3049984 153.40847816 204.30729294 155.22575474 C204.31113408 156.36521425 204.31497523 157.50467377 204.31893277 158.67866236 C204.31806629 159.93620166 204.31719981 161.19374096 204.31630707 162.48938751 C204.31889027 163.83463165 204.32190331 165.17987503 204.32531047 166.52511734 C204.33339096 170.23066653 204.33517065 173.93619636 204.33590794 177.64175332 C204.33775702 181.63610551 204.34530434 185.63044763 204.35204315 189.62479401 C204.36564138 198.36988347 204.37165545 207.11496837 204.37605381 215.86006665 C204.37881758 221.32931124 204.38305555 226.79855407 204.38755798 232.26779747 C204.39975988 247.43011521 204.41005263 262.59243153 204.41343307 277.75475407 C204.41365264 278.7259198 204.41387221 279.69708553 204.41409843 280.69768053 C204.4143167 281.67112712 204.41453498 282.64457372 204.41475987 283.64751869 C204.41520333 285.6199497 204.41564989 287.5923807 204.41609955 289.56481171 C204.41632098 290.54319801 204.41654241 291.5215843 204.41677055 292.52961867 C204.42070559 308.32900843 204.43811572 324.12835169 204.46145907 339.92772353 C204.48526888 356.17526419 204.49763953 372.42278164 204.49880099 388.67034 C204.49971315 397.78144064 204.50534722 406.89248096 204.52362061 416.00356483 C204.53915304 423.77541198 204.54406626 431.54718021 204.5358825 439.31903995 C204.53201987 443.27363663 204.53268509 447.22807511 204.54693985 451.18265152 C204.64660228 480.59063174 203.29993532 510.81158641 192.87508392 538.66613007 C192.01854252 540.87973567 192.01854252 540.87973567 192.17586517 543.77550507 C191.51586517 543.77550507 190.85586517 543.77550507 190.17586517 543.77550507 C190.01658539 544.30845184 189.8573056 544.84139862 189.69319916 545.3904953 C181.85946238 570.32730604 164.70467787 592.28136552 144.97664642 609.03331757 C144.0852597 609.89570038 144.0852597 609.89570038 143.17586517 610.77550507 C143.17586517 611.43550507 143.17586517 612.09550507 143.17586517 612.77550507 C142.61899017 612.86573944 142.06211517 612.95597382 141.48836517 613.04894257 C138.53064888 613.97822505 136.63025905 615.50857645 134.17586517 617.40050507 C115.45421522 631.27480576 90.20494961 642.58977838 66.92195892 645.49425507 C65.90166595 645.62187225 64.88137299 645.74948944 63.83016205 645.88097382 C62.76861908 646.01116913 61.70707611 646.14136444 60.61336517 646.27550507 C59.57889252 646.40570038 58.54441986 646.53589569 57.47859955 646.67003632 C46.60102385 648.01866499 35.90990149 648.92469435 24.94257355 648.91594696 C23.7591223 648.91891808 22.57567104 648.9218892 21.35635763 648.92495036 C18.10213834 648.9320752 14.84795143 648.93480533 11.59372556 648.93554783 C8.07122874 648.93741291 4.54874304 648.94496763 1.02625275 648.95168304 C-6.66467742 648.96521131 -14.35560233 648.9712832 -22.04654241 648.9756937 C-26.86187235 648.97846694 -31.67720031 648.98270634 -36.49252892 648.98719788 C-49.8605782 648.99938611 -63.22862592 649.00968451 -76.59668064 649.01307297 C-77.45079618 649.01329253 -78.30491172 649.0135121 -79.18490955 649.01373832 C-80.04092332 649.0139566 -80.89693709 649.01417487 -81.77889067 649.01439977 C-83.51312896 649.01484321 -85.24736724 649.01528978 -86.98160553 649.01573944 C-87.84182446 649.01596087 -88.70204338 649.0161823 -89.58832955 649.01641044 C-103.49252132 649.02034915 -117.3966604 649.03777677 -131.30083186 649.06109896 C-145.62308489 649.08492558 -159.94531161 649.09728002 -174.26758474 649.09844089 C-182.28980632 649.09935162 -190.3119593 649.10494986 -198.33416176 649.1232605 C-205.17257404 649.13881544 -212.01089656 649.14369302 -218.84932322 649.1355224 C-222.32602083 649.13166868 -225.80253858 649.13227908 -229.27921295 649.14657974 C-245.76581954 649.20275741 -261.79056262 648.34029129 -278.13380229 646.13401937 C-285.64040628 645.08875161 -285.64040628 645.08875161 -293.19913483 644.90050507 C-295.82413483 644.77550507 -295.82413483 644.77550507 -297.18350983 643.37340546 C-299.24148394 641.36902442 -300.9514474 640.89306651 -303.69913483 640.08409882 C-304.67511627 639.78455292 -305.65109772 639.48500702 -306.65665436 639.17638397 C-307.70192291 638.85846893 -308.74719147 638.54055389 -309.82413483 638.21300507 C-326.90293672 632.75219193 -341.68199403 624.73786017 -355.82413483 613.77550507 C-356.81026764 613.01238007 -357.79640045 612.24925507 -358.81241608 611.46300507 C-364.1986389 607.17190638 -369.12509109 602.63224861 -373.85147858 597.62316132 C-375.7723034 595.82405212 -377.48492834 594.91695593 -379.82413483 593.77550507 C-380.44913483 591.77550507 -380.44913483 591.77550507 -380.82413483 589.77550507 C-381.48413483 589.11550507 -382.14413483 588.45550507 -382.82413483 587.77550507 C-383.74186887 586.45715027 -384.63451521 585.12122284 -385.51163483 583.77550507 C-387.64044357 580.51753152 -389.85952649 577.35889238 -392.16007233 574.22081757 C-396.06010173 568.66480897 -398.93136667 562.80428314 -401.76163483 556.65050507 C-402.25470123 555.59863007 -402.74776764 554.54675507 -403.25577545 553.46300507 C-404.45371042 550.90430902 -405.64294763 548.34196396 -406.82413483 545.77550507 C-407.48413483 545.77550507 -408.14413483 545.77550507 -408.82413483 545.77550507 C-408.98268951 544.35624725 -408.98268951 544.35624725 -409.14444733 542.90831757 C-409.844256 538.01947874 -411.29057253 533.37403481 -412.69913483 528.65050507 C-415.0147801 520.73313787 -417.07049953 512.837181 -418.82413483 504.77550507 C-418.98944639 504.21782188 -419.15475796 503.6601387 -419.32507896 503.08555603 C-420.02361957 499.85212163 -420.17677742 496.61286235 -420.35199738 493.31859589 C-420.39335033 492.57241139 -420.43470328 491.82622689 -420.47730935 491.05743074 C-420.96666963 481.73897502 -421.18737485 472.41462994 -421.37833405 463.08605194 C-421.39929634 462.09146438 -421.42025863 461.09687681 -421.44185615 460.07215023 C-421.98235823 433.76941928 -421.97195907 407.46429077 -421.95943523 381.15720251 C-421.95711329 376.14861629 -421.95688015 371.14003345 -421.95795059 366.13144684 C-421.95818044 365.04359068 -421.95818044 365.04359068 -421.95841493 363.93375763 C-421.95873478 362.45867956 -421.959059 360.98360148 -421.95938753 359.5085234 C-421.96220327 345.85035434 -421.95901524 332.19219212 -421.95358716 318.53402418 C-421.94909958 306.88144152 -421.94991866 295.22886881 -421.95450592 283.57628632 C-421.95988192 269.91445615 -421.96195273 256.25263184 -421.95889366 242.59080076 C-421.95857522 241.12986215 -421.95826084 239.66892354 -421.95795059 238.20798492 C-421.95779632 237.48983239 -421.95764204 236.77167986 -421.95748309 236.03176513 C-421.9566287 231.03212347 -421.95805676 226.03248562 -421.96043015 221.03284454 C-421.96355977 214.29521453 -421.96126937 207.557606 -421.95553589 200.81997681 C-421.95422827 198.36883576 -421.95456779 195.91769311 -421.95679855 193.46655273 C-421.99892583 142.42904411 -421.99892583 142.42904411 -419.26554108 131.55284882 C-418.71668017 129.34283364 -419.13609551 127.91607184 -419.82413483 125.77550507 C-418.83413483 126.10550507 -417.84413483 126.43550507 -416.82413483 126.77550507 C-416.64237701 125.02753632 -416.64237701 125.02753632 -416.45694733 123.24425507 C-415.007323 111.74827958 -410.22187077 100.80727169 -405.44913483 90.34191132 C-404.15658031 87.505127 -402.94781338 84.65693048 -401.76163483 81.77550507 C-400.1279042 78.13050102 -398.0559798 75.1248908 -395.58194733 71.99816132 C-393.48703079 69.34925574 -391.50829446 66.62417143 -389.51163483 63.90050507 C-385.24620877 58.22041509 -380.69696244 52.9395034 -375.82413483 47.77550507 C-375.16284576 47.04976288 -374.5015567 46.32402069 -373.82022858 45.57628632 C-358.43322144 29.31335847 -332.60335393 11.39547915 -309.82413483 8.77550507 C-309.82413483 7.78550507 -309.82413483 6.79550507 -309.82413483 5.77550507 C-307.51040159 4.61863845 -306.31950286 4.71678855 -303.75772858 4.80284882 C-298.99199204 4.85526144 -294.55939474 4.21542287 -289.88663483 3.33800507 C-277.46757208 1.05917793 -265.31297277 0.60787667 -252.71134186 0.55431366 C-250.8762635 0.54310354 -249.04118748 0.53150464 -247.20611382 0.51955032 C-242.21254939 0.48833154 -237.21897123 0.46320146 -232.22536659 0.4394021 C-227.99159435 0.41858014 -223.75784288 0.39451177 -219.52408767 0.37050951 C-205.84429891 0.29320471 -192.16446366 0.22838511 -178.48459721 0.16659737 C-174.95759488 0.15054357 -171.43059474 0.13407436 -167.90359497 0.11746979 C-54.58927192 -0.41489089 -54.58927192 -0.41489089 0 0 Z M-306.82413483 5.77550507 C-307.48413483 6.43550507 -308.14413483 7.09550507 -308.82413483 7.77550507 C-306.84413483 7.44550507 -304.86413483 7.11550507 -302.82413483 6.77550507 C-304.71592686 6.09402277 -304.71592686 6.09402277 -306.82413483 5.77550507 Z M-294.82413483 642.77550507 C-290.82413483 643.77550507 -290.82413483 643.77550507 -290.82413483 643.77550507 Z " fill="#2A4D3A" transform="translate(619.8241348266602,187.22449493408203)"/>
<path d="M0 0 C17.70194871 14.04689047 28.62594453 32.51434118 33.5 54.5 C33.6750708 55.27303467 33.8501416 56.04606934 34.03051758 56.8425293 C38.06748391 79.69348016 33.411568 104.42125933 20.5703125 123.7109375 C5.78538903 143.62874006 -14.74630734 157.65651095 -39.5 161.5 C-41.86311614 161.63079777 -44.13122915 161.59738978 -46.5 161.5 C-46.70521899 158.31346778 -46.82822933 155.12864948 -46.9375 151.9375 C-47.02547852 150.59461914 -47.02547852 150.59461914 -47.11523438 149.22460938 C-47.21364887 145.38644424 -47.27496157 142.61341049 -45.03369141 139.39331055 C-43.26859576 137.61675324 -41.46608321 136.04878469 -39.5 134.5 C-38.33013853 133.48282944 -37.1630613 132.46243913 -36 131.4375 C-35.34902344 130.87675781 -34.69804688 130.31601562 -34.02734375 129.73828125 C-27.72810846 124.15951491 -21.45095707 118.45095707 -15.5 112.5 C-15.24996036 109.04178598 -15.24996036 109.04178598 -15.5 105.5 C-17.31329787 103.2913156 -17.31329787 103.2913156 -19.84375 103.14453125 C-23.3010227 103.60719568 -24.48701827 104.79070064 -27 107.1875 C-27.85464844 107.99445313 -28.70929688 108.80140625 -29.58984375 109.6328125 C-33.53254956 113.49151375 -37.43611473 117.39211436 -41.296875 121.33276367 C-42.6804899 122.73920152 -44.08799321 124.12206879 -45.5 125.5 C-45.83 125.5 -46.16 125.5 -46.5 125.5 C-46.50808685 124.80508957 -46.51617371 124.11017914 -46.52450562 123.39421082 C-46.60243657 116.84630457 -46.68972253 110.29859775 -46.78752708 103.75095654 C-46.83747962 100.38471284 -46.88380947 97.01850037 -46.921875 93.65209961 C-46.96742835 89.7822002 -47.02543941 85.91265975 -47.0859375 82.04296875 C-47.10326431 80.22879707 -47.10326431 80.22879707 -47.12094116 78.37797546 C-47.1507457 76.69657219 -47.1507457 76.69657219 -47.18115234 74.98120117 C-47.20113785 73.49894295 -47.20113785 73.49894295 -47.2215271 71.98674011 C-47.33553926 69.24981189 -47.33553926 69.24981189 -49.5 66.5 C-52.5 66.08333333 -52.5 66.08333333 -55.5 66.5 C-58.57740978 69.57740978 -57.80860913 73.22403017 -57.81884766 77.35595703 C-57.82889328 78.27308472 -57.8389389 79.1902124 -57.84928894 80.13513184 C-57.88025685 83.17601883 -57.89719378 86.21681725 -57.9140625 89.2578125 C-57.93276321 91.3624651 -57.95233578 93.46711013 -57.9727478 95.57174683 C-58.02419093 101.11850525 -58.06375134 106.66528802 -58.10089111 112.2121582 C-58.14085457 117.86936525 -58.19198175 123.52646997 -58.2421875 129.18359375 C-58.33909094 140.28899075 -58.42344942 151.39444537 -58.5 162.5 C-54.87 162.5 -51.24 162.5 -47.5 162.5 C-47.5 189.23 -47.5 215.96 -47.5 243.5 C-45.52 243.17 -43.54 242.84 -41.5 242.5 C-17.05997255 241.27820397 12.08502068 242.29251034 34.5 253.5 C34.37633051 281.57297488 15.22098114 308.14708701 -3.5 327.5 C-4.38558594 328.43714844 -5.27117187 329.37429688 -6.18359375 330.33984375 C-24.95631727 349.76647927 -51.15575575 368.00474355 -78.87811279 368.76261902 C-82.01222681 368.81485147 -85.1450398 368.82427372 -88.27954102 368.81567383 C-90.66664975 368.81252748 -93.05249769 368.83601081 -95.43945312 368.86132812 C-109.67414376 368.92086102 -123.1960745 366.82341301 -136.875 362.8125 C-137.74729248 362.55903809 -138.61958496 362.30557617 -139.51831055 362.04443359 C-154.52384637 357.52800708 -168.66197395 350.78185458 -182.5 343.5 C-183.65371094 342.90574219 -184.80742188 342.31148437 -185.99609375 341.69921875 C-204.82933287 331.71747329 -222.5732819 318.97766475 -239.73046875 306.37426758 C-275.79267941 280.04399411 -314.05922951 259.00953344 -355.9074707 243.34375 C-356.64118141 243.06885742 -357.37489212 242.79396484 -358.13083649 242.51074219 C-359.92047401 241.84027148 -361.71022518 241.17010412 -363.5 240.5 C-363.57037293 222.93104193 -363.62312572 205.36212844 -363.65543652 187.79306126 C-363.67084398 179.63372115 -363.69181496 171.4744691 -363.72631836 163.31518555 C-363.75640973 156.19579612 -363.77561936 149.07647053 -363.78226548 141.95701927 C-363.78614467 138.19434982 -363.79513009 134.43186282 -363.81719017 130.6692524 C-364.02417227 93.93212782 -364.02417227 93.93212782 -357.3125 76.8125 C-357.01134277 76.02488281 -356.71018555 75.23726563 -356.39990234 74.42578125 C-345.33616267 46.42264354 -322.77091361 24.59615439 -295.48046875 12.48046875 C-287.75655242 9.26382887 -279.66713221 7.24570715 -271.5 5.5 C-270.71705566 5.32114258 -269.93411133 5.14228516 -269.12744141 4.95800781 C-254.00885433 2.32258044 -236.33381386 3.50084725 -221.5 7.5 C-220.77699707 7.69335938 -220.05399414 7.88671875 -219.30908203 8.0859375 C-190.97440674 15.9712154 -165.85548491 35.07677015 -151.22460938 60.73681641 C-139.90952814 81.84790695 -136.21301907 103.52462218 -136.18115234 127.25756836 C-136.17182667 128.87552883 -136.16165421 130.4934846 -136.15071106 132.11143494 C-136.12369393 136.45337354 -136.10834685 140.79528024 -136.09528303 145.13728023 C-136.07952698 149.69365343 -136.05277738 154.24996262 -136.0272522 158.80628967 C-135.98068323 167.41184586 -135.94383406 176.01741438 -135.91057932 184.6230312 C-135.87220219 194.42976193 -135.8228335 204.23642803 -135.77259517 214.04310405 C-135.66960125 234.19535482 -135.58023626 254.34764661 -135.5 274.5 C-134.72922119 274.0968457 -133.95844238 273.69369141 -133.16430664 273.27832031 C-130.26358547 271.7627811 -127.36159062 270.24973557 -124.45874023 268.73828125 C-123.21018622 268.08756068 -121.96212572 267.43589217 -120.71459961 266.78320312 C-80.02516296 245.5 -80.02516296 245.5 -59.5 245.5 C-59.5 217.78 -59.5 190.06 -59.5 161.5 C-67.42 159.52 -67.42 159.52 -75.5 157.5 C-78.42659074 156.36312251 -80.96882721 155.32980818 -83.6875 153.875 C-84.33912109 153.53726563 -84.99074219 153.19953125 -85.66210938 152.8515625 C-98.57299159 145.91212045 -109.27576689 136.18179793 -117.875 124.375 C-118.30449951 123.78879883 -118.73399902 123.20259766 -119.17651367 122.59863281 C-123.62172141 116.29984894 -124.70595252 110.7296437 -125.3125 103.1875 C-126.55195553 90.5494571 -130.11590609 68.88409391 -139.5 59.5 C-140.43700461 41.53395516 -127.72247155 23.19592555 -116.5 10.5 C-115.94828125 9.86449219 -115.3965625 9.22898437 -114.828125 8.57421875 C-105.77314861 -1.17557019 -93.73365009 -7.65184978 -81.5 -12.5 C-80.42234375 -12.93570312 -79.3446875 -13.37140625 -78.234375 -13.8203125 C-51.65401077 -22.65982898 -22.1608102 -16.13975988 0 0 Z " fill="#F6F6F2" transform="translate(719.5,337.5)"/>
<path d="M0 0 C17.70194871 14.04689047 28.62594453 32.51434118 33.5 54.5 C33.6750708 55.27303467 33.8501416 56.04606934 34.03051758 56.8425293 C38.06748391 79.69348016 33.411568 104.42125933 20.5703125 123.7109375 C5.78538903 143.62874006 -14.74630734 157.65651095 -39.5 161.5 C-41.86311614 161.63079777 -44.13122915 161.59738978 -46.5 161.5 C-46.70521899 158.31346778 -46.82822933 155.12864948 -46.9375 151.9375 C-47.02547852 150.59461914 -47.02547852 150.59461914 -47.11523438 149.22460938 C-47.21364887 145.38644424 -47.27496157 142.61341049 -45.03369141 139.39331055 C-43.26859576 137.61675324 -41.46608321 136.04878469 -39.5 134.5 C-38.33013853 133.48282944 -37.1630613 132.46243913 -36 131.4375 C-35.34902344 130.87675781 -34.69804688 130.31601562 -34.02734375 129.73828125 C-27.72810846 124.15951491 -21.45095707 118.45095707 -15.5 112.5 C-15.24996036 109.04178598 -15.24996036 109.04178598 -15.5 105.5 C-17.31329787 103.2913156 -17.31329787 103.2913156 -19.84375 103.14453125 C-23.3010227 103.60719568 -24.48701827 104.79070064 -27 107.1875 C-27.85464844 107.99445313 -28.70929688 108.80140625 -29.58984375 109.6328125 C-33.53254956 113.49151375 -37.43611473 117.39211436 -41.296875 121.33276367 C-42.6804899 122.73920152 -44.08799321 124.12206879 -45.5 125.5 C-45.83 125.5 -46.16 125.5 -46.5 125.5 C-46.50808685 124.80508957 -46.51617371 124.11017914 -46.52450562 123.39421082 C-46.60243657 116.84630457 -46.68972253 110.29859775 -46.78752708 103.75095654 C-46.83747962 100.38471284 -46.88380947 97.01850037 -46.921875 93.65209961 C-46.96742835 89.7822002 -47.02543941 85.91265975 -47.0859375 82.04296875 C-47.10326431 80.22879707 -47.10326431 80.22879707 -47.12094116 78.37797546 C-47.1507457 76.69657219 -47.1507457 76.69657219 -47.18115234 74.98120117 C-47.20113785 73.49894295 -47.20113785 73.49894295 -47.2215271 71.98674011 C-47.33553926 69.24981189 -47.33553926 69.24981189 -49.5 66.5 C-52.5 66.08333333 -52.5 66.08333333 -55.5 66.5 C-58.57740978 69.57740978 -57.80860913 73.22403017 -57.81884766 77.35595703 C-57.82889328 78.27308472 -57.8389389 79.1902124 -57.84928894 80.13513184 C-57.88025685 83.17601883 -57.89719378 86.21681725 -57.9140625 89.2578125 C-57.93276321 91.3624651 -57.95233578 93.46711013 -57.9727478 95.57174683 C-58.02419093 101.11850525 -58.06375134 106.66528802 -58.10089111 112.2121582 C-58.14085457 117.86936525 -58.19198175 123.52646997 -58.2421875 129.18359375 C-58.33909094 140.28899075 -58.42344942 151.39444537 -58.5 162.5 C-54.87 162.5 -51.24 162.5 -47.5 162.5 C-47.5 189.23 -47.5 215.96 -47.5 243.5 C-45.52 243.17 -43.54 242.84 -41.5 242.5 C-17.05997255 241.27820397 12.08502068 242.29251034 34.5 253.5 C34.37633051 281.57297488 15.22098114 308.14708701 -3.5 327.5 C-4.38558594 328.43714844 -5.27117187 329.37429688 -6.18359375 330.33984375 C-24.95631727 349.76647927 -51.15575575 368.00474355 -78.87811279 368.76261902 C-82.01222681 368.81485147 -85.1450398 368.82427372 -88.27954102 368.81567383 C-90.66664975 368.81252748 -93.05249769 368.83601081 -95.43945312 368.86132812 C-109.67414376 368.92086102 -123.1960745 366.82341301 -136.875 362.8125 C-137.74729248 362.55903809 -138.61958496 362.30557617 -139.51831055 362.04443359 C-163.34606355 354.87266069 -186.25360695 342.68869728 -207 329.0625 C-207.65363525 328.63727051 -208.30727051 328.21204102 -208.98071289 327.77392578 C-210.52563727 326.73783141 -212.01903318 325.6256199 -213.5 324.5 C-213.5 323.84 -213.5 323.18 -213.5 322.5 C-211.38023521 321.09608009 -209.26835465 319.81888878 -207.0625 318.5625 C-201.43243923 315.27187393 -195.89735542 311.87854546 -190.4375 308.3125 C-189.00533222 307.38001804 -187.57303639 306.4477327 -186.140625 305.515625 C-185.39490234 305.03029297 -184.64917969 304.54496094 -183.88085938 304.04492188 C-172.10778914 296.40546449 -160.26123313 288.88504061 -148.25 281.625 C-147.39817139 281.10687744 -146.54634277 280.58875488 -145.66870117 280.05493164 C-144.49464722 279.35098267 -144.49464722 279.35098267 -143.296875 278.6328125 C-142.26578613 278.01237061 -142.26578613 278.01237061 -141.21386719 277.37939453 C-139.5 276.5 -139.5 276.5 -137.5 276.5 C-137.5 221.72 -137.5 166.94 -137.5 110.5 C-137.17 110.5 -136.84 110.5 -136.5 110.5 C-136.17 164.62 -135.84 218.74 -135.5 274.5 C-126.59 269.88 -117.68 265.26 -108.5 260.5 C-74.75 245.5 -74.75 245.5 -59.5 245.5 C-59.5 217.78 -59.5 190.06 -59.5 161.5 C-64.78 160.18 -70.06 158.86 -75.5 157.5 C-78.42659074 156.36312251 -80.96882721 155.32980818 -83.6875 153.875 C-84.33912109 153.53726563 -84.99074219 153.19953125 -85.66210938 152.8515625 C-98.57299159 145.91212045 -109.27576689 136.18179793 -117.875 124.375 C-118.30449951 123.78879883 -118.73399902 123.20259766 -119.17651367 122.59863281 C-123.62172141 116.29984894 -124.70595252 110.7296437 -125.3125 103.1875 C-126.55195553 90.5494571 -130.11590609 68.88409391 -139.5 59.5 C-140.43700461 41.53395516 -127.72247155 23.19592555 -116.5 10.5 C-115.94828125 9.86449219 -115.3965625 9.22898437 -114.828125 8.57421875 C-105.77314861 -1.17557019 -93.73365009 -7.65184978 -81.5 -12.5 C-80.42234375 -12.93570312 -79.3446875 -13.37140625 -78.234375 -13.8203125 C-51.65401077 -22.65982898 -22.1608102 -16.13975988 0 0 Z " fill="#94AB8F" transform="translate(719.5,337.5)"/>
<path d="M0 0 C21.38353372 15.30101772 43.19385271 29.72013869 67 41 C67.70205566 41.33773437 68.40411133 41.67546875 69.12744141 42.0234375 C85.41085056 49.80845091 102.21979521 54.94882906 120 58 C120.88349121 58.17345947 121.76698242 58.34691895 122.67724609 58.52563477 C126.57487695 59.08207097 130.40090696 59.14345465 134.328125 59.1328125 C135.11717224 59.13376923 135.90621948 59.13472595 136.71917725 59.13571167 C138.38326091 59.13638955 140.04734726 59.13456273 141.71142578 59.13037109 C144.22825227 59.12504601 146.74489797 59.13031463 149.26171875 59.13671875 C157.2426897 59.13968742 165.06993344 59.01957999 173 58 C170.1066759 60.37176271 167.49693655 61.71478151 163.95703125 62.90234375 C162.48339111 63.39891479 162.48339111 63.39891479 160.97998047 63.90551758 C159.93471191 64.24607178 158.88944336 64.58662598 157.8125 64.9375 C156.19045654 65.46863403 156.19045654 65.46863403 154.53564453 66.01049805 C121.48148642 76.6597559 86.98035131 78.33996035 52.45703125 78.23046875 C49.90370202 78.22927108 47.35037234 78.22882502 44.79704285 78.2290802 C39.49365883 78.22753225 34.19032731 78.21963079 28.88696289 78.20581055 C22.82704193 78.19007329 16.76718463 78.18481408 10.70724469 78.1855461 C4.7805729 78.18616438 -1.14608131 78.18087471 -7.07274818 78.17275429 C-9.55175979 78.16961808 -12.03077313 78.16761234 -14.50978661 78.16686058 C-57.36335613 78.13960987 -57.36335613 78.13960987 -73.5 75.375 C-75.0461499 75.1128772 -75.0461499 75.1128772 -76.62353516 74.84545898 C-103.35075033 70.0303146 -129.21604096 59.34123231 -151 43 C-151.84546387 42.38705078 -151.84546387 42.38705078 -152.70800781 41.76171875 C-186.60886877 17.14119466 -209.82254062 -19.32041612 -216.70410156 -60.71484375 C-217.44888056 -66.46660233 -217.31111307 -72.21848217 -217 -78 C-139.93588692 -92.42287573 -59.41621382 -42.51842139 0 0 Z " fill="#426851" transform="translate(484,646)"/>
<path d="M0 0 C1.68172203 3.36344405 1.07660028 7.16091648 1.02172852 10.85595703 C1.01212097 11.77308472 1.00251343 12.6902124 0.99261475 13.63513184 C0.95955072 16.67610169 0.91924661 19.71693117 0.87890625 22.7578125 C0.85461237 24.86245219 0.83076845 26.96709712 0.80735779 29.07174683 C0.74444403 34.61861119 0.67539807 40.16538313 0.60510254 45.7121582 C0.53448487 51.36926047 0.46962864 57.02642841 0.40429688 62.68359375 C0.27519057 73.78913467 0.1396101 84.89458651 0 96 C3.63 96 7.26 96 11 96 C11 122.73 11 149.46 11 177 C12.98 176.67 14.96 176.34 17 176 C41.44002745 174.77820397 70.58502068 175.79251034 93 187 C92.87633051 215.07297488 73.72098114 241.64708701 55 261 C54.11441406 261.93714844 53.22882813 262.87429688 52.31640625 263.83984375 C33.54368273 283.26647927 7.34424425 301.50474355 -20.37811279 302.26261902 C-23.51222681 302.31485147 -26.6450398 302.32427372 -29.77954102 302.31567383 C-32.16664975 302.31252748 -34.55249769 302.33601081 -36.93945312 302.36132812 C-51.17414376 302.42086102 -64.6960745 300.32341301 -78.375 296.3125 C-79.24729248 296.05903809 -80.11958496 295.80557617 -81.01831055 295.54443359 C-104.84606355 288.37266069 -127.75360695 276.18869728 -148.5 262.5625 C-149.15363525 262.13727051 -149.80727051 261.71204102 -150.48071289 261.27392578 C-152.02563727 260.23783141 -153.51903318 259.1256199 -155 258 C-155 257.34 -155 256.68 -155 256 C-152.88023521 254.59608009 -150.76835465 253.31888878 -148.5625 252.0625 C-142.93243923 248.77187393 -137.39735542 245.37854546 -131.9375 241.8125 C-130.50533222 240.88001804 -129.07303639 239.9477327 -127.640625 239.015625 C-126.89490234 238.53029297 -126.14917969 238.04496094 -125.38085938 237.54492188 C-113.60778914 229.90546449 -101.76123313 222.38504061 -89.75 215.125 C-88.89817139 214.60687744 -88.04634277 214.08875488 -87.16870117 213.55493164 C-85.99464722 212.85098267 -85.99464722 212.85098267 -84.796875 212.1328125 C-83.76578613 211.51237061 -83.76578613 211.51237061 -82.71386719 210.87939453 C-81 210 -81 210 -79 210 C-79 155.22 -79 100.44 -79 44 C-78.67 44 -78.34 44 -78 44 C-77.67 98.12 -77.34 152.24 -77 208 C-68.09 203.38 -59.18 198.76 -50 194 C-16.25 179 -16.25 179 -1 179 C-1 151.28 -1 123.56 -1 95 C-4.96 94.01 -4.96 94.01 -9 93 C-9 92.67 -9 92.34 -9 92 C-6.36 92.33 -3.72 92.66 -1 93 C-1.00222061 91.8496376 -1.00444122 90.69927521 -1.00672913 89.51405334 C-1.02695922 78.69799941 -1.0419715 67.8819493 -1.05181217 57.06588078 C-1.05704134 51.50460589 -1.06413958 45.94334621 -1.07543945 40.38208008 C-1.08626715 35.01992581 -1.09227658 29.65778622 -1.09487724 24.29562187 C-1.09673171 22.24499722 -1.10035272 20.1943734 -1.10573006 18.14375496 C-1.11293893 15.28209797 -1.11399101 12.42050243 -1.11352539 9.55883789 C-1.11712067 8.70216522 -1.12071594 7.84549255 -1.12442017 6.96286011 C-1.11405216 1.11405216 -1.11405216 1.11405216 0 0 Z " fill="#9EB399" transform="translate(661,404)"/>
<path d="M0 0 C3 0.4375 3 0.4375 4.66047668 2.12091064 C6.28507402 4.93051079 6.3952785 6.70578512 6.43237305 9.94042969 C6.46206429 11.59168854 6.46206429 11.59168854 6.49235535 13.27630615 C6.49874527 14.45871887 6.50513519 15.64113159 6.51171875 16.859375 C6.52966995 18.07449768 6.54762115 19.28962036 6.56611633 20.54156494 C6.62030858 24.42350797 6.6541447 28.30532741 6.6875 32.1875 C6.72066508 34.81902765 6.75515397 37.45053897 6.79101562 40.08203125 C6.8760404 46.53374335 6.94435271 52.98547127 7 59.4375 C7.59014893 58.84211426 8.18029785 58.24672852 8.78833008 57.63330078 C10.98357307 55.42099352 13.1810759 53.21096296 15.38012695 51.00244141 C16.79749 49.57758931 18.21223639 48.15013587 19.62695312 46.72265625 C20.51962891 45.82675781 21.41230469 44.93085938 22.33203125 44.0078125 C23.15421143 43.18039551 23.9763916 42.35297852 24.82348633 41.50048828 C27.3065776 39.14691326 29.04528842 37.55683895 32.5 37.125 C35 37.4375 35 37.4375 36.8125 38.5 C38.6947256 41.57099966 38.36712415 43.90346656 38 47.4375 C35.875 50.28125 35.875 50.28125 33 52.9375 C32.49525146 53.41251953 31.99050293 53.88753906 31.47045898 54.37695312 C29.99931776 55.75110887 28.50019099 57.09511872 27 58.4375 C26.31035156 59.05625 25.62070312 59.675 24.91015625 60.3125 C24.30042969 60.84875 23.69070313 61.385 23.0625 61.9375 C22.48155579 62.46014938 21.90061157 62.98279877 21.30206299 63.52128601 C19 65.4375 19 65.4375 16.01947021 67.3787384 C11.69719929 70.5435688 7.87407442 73.43298698 6.3276825 78.74850082 C5.29228673 85.59038329 5.62367086 92.4933466 5.828125 99.38671875 C5.8505366 101.61297511 5.86760393 103.83929109 5.87957764 106.06562805 C5.92516292 111.89511629 6.04282181 117.72095469 6.17602539 123.54901123 C6.2992976 129.5080834 6.35369711 135.46775176 6.4140625 141.42773438 C6.54234516 153.09925055 6.74685438 164.76807055 7 176.4375 C8.02246826 176.42702637 9.04493652 176.41655273 10.09838867 176.40576172 C13.95447171 176.3690897 17.81053993 176.34643099 21.66674805 176.32763672 C23.32400113 176.31768517 24.98123715 176.30411907 26.63842773 176.28662109 C36.65403187 176.18364845 46.13824999 176.48037454 56 178.4375 C56 178.7675 56 179.0975 56 179.4375 C55.08347656 179.3653125 54.16695312 179.293125 53.22265625 179.21875 C37.05648654 178.12582585 21.35336695 178.4375 5 178.4375 C5 151.7075 5 124.9775 5 97.4375 C1.37 97.4375 -2.26 97.4375 -6 97.4375 C-6.06943137 85.23327085 -6.12277636 73.0290885 -6.15543652 60.82470226 C-6.1711097 55.15804773 -6.19237822 49.49152807 -6.22631836 43.82495117 C-6.25885272 38.35903404 -6.27684055 32.89324684 -6.28463173 27.42724037 C-6.29018589 25.33917507 -6.30103145 23.25111708 -6.31719017 21.16310692 C-6.33888562 18.24424094 -6.34197022 15.32591571 -6.34057617 12.40698242 C-6.351362 11.53879883 -6.36214783 10.67061523 -6.3732605 9.77612305 C-6.34266932 3.87852447 -6.34266932 3.87852447 -4.66495228 1.71925831 C-3 0.4375 -3 0.4375 0 0 Z " fill="#234533" transform="translate(667,402.5625)"/>
<path d="M0 0 C0.95065842 -0.00563965 1.90131683 -0.0112793 2.88078308 -0.01708984 C3.92708389 -0.01304138 4.9733847 -0.00899292 6.0513916 -0.00482178 C7.15062454 -0.00832642 8.24985748 -0.01183105 9.38240051 -0.01544189 C13.03059123 -0.02427348 16.6785894 -0.01840495 20.32678223 -0.01165771 C22.85262082 -0.01300395 25.37845917 -0.01494414 27.90429688 -0.01745605 C33.2038442 -0.02040926 38.50332196 -0.01629298 43.80285645 -0.0067749 C49.93429767 0.00410996 56.0656059 0.00058448 62.1970439 -0.01042771 C68.0895699 -0.02058819 73.98205449 -0.01952431 79.87458801 -0.01366425 C82.38491331 -0.01232628 84.89524199 -0.01398058 87.40556335 -0.01862335 C90.90869246 -0.02367981 94.41156309 -0.0159906 97.91467285 -0.00482178 C99.48412407 -0.01089447 99.48412407 -0.01089447 101.08528137 -0.01708984 C102.03593979 -0.0114502 102.98659821 -0.00581055 103.96606445 0 C104.79492409 0.00075405 105.62378372 0.0015081 106.47776031 0.002285 C108.48303223 0.25396729 108.48303223 0.25396729 110.48303223 2.25396729 C110.73303223 5.25396729 110.73303223 5.25396729 110.48303223 8.25396729 C108.02860544 10.70839407 107.38129946 10.50483581 104.01075745 10.50793457 C103.06995834 10.51357422 102.12915924 10.51921387 101.15985107 10.52502441 C99.60678253 10.51895172 99.60678253 10.51895172 98.02233887 10.51275635 C96.93446579 10.51626099 95.84659271 10.51976562 94.72575378 10.52337646 C91.11483455 10.53220861 87.50410985 10.52633892 83.89318848 10.51959229 C81.39216575 10.5209386 78.89114328 10.52287886 76.39012146 10.52539062 C71.14185589 10.52834398 65.89364127 10.5242275 60.64538574 10.51470947 C54.57644802 10.50383023 48.50764472 10.50734592 42.43871027 10.51836228 C36.60384842 10.52853022 30.76903769 10.52745581 24.93417168 10.52159882 C22.44979267 10.52026182 19.96541025 10.52191178 17.48103523 10.52655792 C14.01163699 10.53162124 10.54249892 10.52391515 7.07312012 10.51275635 C6.03976532 10.51680481 5.00641052 10.52085327 3.94174194 10.52502441 C2.99812302 10.51938477 2.05450409 10.51374512 1.08229065 10.50793457 C-0.1485546 10.50680349 -0.1485546 10.50680349 -1.4042654 10.50564957 C-3.51696777 10.25396729 -3.51696777 10.25396729 -6.51696777 8.25396729 C-6.82946777 5.25396729 -6.82946777 5.25396729 -6.51696777 2.25396729 C-4.05417943 -0.20882105 -3.38554753 0.00307999 0 0 Z " fill="#698968" transform="translate(417.5169677734375,471.74603271484375)"/>
<path d="M0 0 C0.95065842 -0.00563965 1.90131683 -0.0112793 2.88078308 -0.01708984 C3.92708389 -0.01304138 4.9733847 -0.00899292 6.0513916 -0.00482178 C7.15062454 -0.00832642 8.24985748 -0.01183105 9.38240051 -0.01544189 C13.03059123 -0.02427348 16.6785894 -0.01840495 20.32678223 -0.01165771 C22.85262082 -0.01300395 25.37845917 -0.01494414 27.90429688 -0.01745605 C33.2038442 -0.02040926 38.50332196 -0.01629298 43.80285645 -0.0067749 C49.93429767 0.00410996 56.0656059 0.00058448 62.1970439 -0.01042771 C68.0895699 -0.02058819 73.98205449 -0.01952431 79.87458801 -0.01366425 C82.38491331 -0.01232628 84.89524199 -0.01398058 87.40556335 -0.01862335 C90.90869246 -0.02367981 94.41156309 -0.0159906 97.91467285 -0.00482178 C99.48412407 -0.01089447 99.48412407 -0.01089447 101.08528137 -0.01708984 C102.03593979 -0.0114502 102.98659821 -0.00581055 103.96606445 0 C104.79492409 0.00075405 105.62378372 0.0015081 106.47776031 0.002285 C108.48303223 0.25396729 108.48303223 0.25396729 110.48303223 2.25396729 C110.79553223 5.25396729 110.79553223 5.25396729 110.48303223 8.25396729 C107.31383371 10.3667663 106.5518392 10.50550198 102.9284668 10.5146637 C101.52782738 10.52529091 101.52782738 10.52529091 100.09889221 10.53613281 C99.0764592 10.5336554 98.05402618 10.53117798 97.00061035 10.52862549 C95.92234482 10.53373642 94.84407928 10.53884735 93.73313904 10.54411316 C90.1601307 10.55804153 86.58731452 10.55705009 83.01428223 10.55474854 C80.53710864 10.55863334 78.05993572 10.56296756 75.58276367 10.56773376 C70.38755129 10.57520273 65.19240685 10.57489953 59.99719238 10.56964111 C54.65434553 10.56426589 49.31168803 10.57132182 43.96887207 10.59014893 C37.52689123 10.61256158 31.08506883 10.62040835 24.64305115 10.61647606 C22.18378652 10.61699071 19.72451826 10.62225527 17.26527405 10.63228798 C13.83181538 10.64457656 10.39890352 10.63790631 6.9654541 10.62628174 C5.94302109 10.63392548 4.92058807 10.64156921 3.86717224 10.64944458 C2.93341263 10.64243027 1.99965302 10.63541595 1.03759766 10.62818909 C0.22570732 10.62835683 -0.58618301 10.62852457 -1.42267609 10.6286974 C-4.04103526 10.16019627 -4.93043611 9.35684562 -6.51696777 7.25396729 C-6.82946777 4.69146729 -6.82946777 4.69146729 -6.51696777 2.25396729 C-4.05417943 -0.20882105 -3.38554753 0.00307999 0 0 Z " fill="#7A9777" transform="translate(417.5169677734375,505.74603271484375)"/>
<path d="M0 0 C0.33 0 0.66 0 1 0 C1 107.58 1 215.16 1 326 C0.34 326.33 -0.32 326.66 -1 327 C-2.1607938 296.78116003 -2.14948746 266.56356728 -2.13529945 236.3270858 C-2.13299112 231.26719269 -2.13274078 226.20730293 -2.13381577 221.14740944 C-2.13404561 220.05315466 -2.13404561 220.05315466 -2.13428011 218.93679372 C-2.13459993 217.45342177 -2.13492415 215.97004981 -2.1352527 214.48667786 C-2.13807847 200.70218079 -2.13486526 186.91769045 -2.12945233 173.13319448 C-2.12497458 161.36621811 -2.12577388 149.59925159 -2.13037109 137.83227539 C-2.13574735 124.06541607 -2.13781686 110.29856257 -2.13475883 96.53170234 C-2.13444037 95.05879676 -2.134126 93.58589119 -2.13381577 92.11298561 C-2.13366149 91.38882411 -2.13350721 90.6646626 -2.13334826 89.91855681 C-2.13249315 84.87195418 -2.13392377 79.82535532 -2.13629532 74.77875328 C-2.13942578 67.96986214 -2.13713341 61.16098973 -2.13140106 54.35210037 C-2.13009318 51.87355517 -2.13043344 49.39500839 -2.13266373 46.91646385 C-2.14246808 34.9023398 -2.04488341 22.90855688 -1.55441284 10.90315247 C-1.51567712 9.91641877 -1.4769414 8.92968507 -1.43703187 7.91305035 C-1.39572423 7.01626641 -1.3544166 6.11948247 -1.31185722 5.19552326 C-1.27602307 4.40616707 -1.24018892 3.61681088 -1.20326889 2.80353481 C-1 1 -1 1 0 0 Z " fill="#0E2216" transform="translate(200,334)"/>
<path d="M0 0 C3.58723982 0.03001095 7.17449145 0.05643852 10.76176453 0.08213425 C16.29712472 0.12302154 21.83227236 0.17470931 27.36744118 0.23622131 C29.32223613 0.2571111 31.27706132 0.27539732 33.2319088 0.29059601 C42.32406219 0.36559677 51.32976483 0.6234574 60.37321472 1.62073898 C61.09799735 1.69749265 61.82277998 1.77424631 62.56952572 1.85332584 C64.28013749 2.06537621 65.97728151 2.38151906 67.66789246 2.71766281 C67.99789246 3.37766281 68.32789246 4.03766281 68.66789246 4.71766281 C67.57636997 4.64785737 66.48484749 4.57805193 65.36024857 4.50613117 C50.40245545 3.61927856 35.45561465 3.5453727 20.47642517 3.5170542 C16.73576263 3.50892459 12.9951193 3.49527177 9.25447083 3.48234177 C2.79743311 3.4607539 -3.65960672 3.44254639 -10.11666107 3.42673683 C-19.45209589 3.40387475 -28.78750928 3.37575612 -38.12292573 3.34641755 C-53.27467471 3.29893983 -68.42643255 3.25562299 -83.57820129 3.21497726 C-98.2832864 3.17552077 -112.9883637 3.1340708 -127.69343567 3.08997726 C-129.05658493 3.08589086 -129.05658493 3.08589086 -130.44727257 3.08172189 C-135.00698578 3.06804075 -139.56669888 3.0543208 -144.12641191 3.04058158 C-181.86162749 2.92692877 -219.59685981 2.8200516 -257.33210754 2.71766281 C-257.33210754 2.05766281 -257.33210754 1.39766281 -257.33210754 0.71766281 C-68.13846616 -0.58470018 -68.13846616 -0.58470018 0 0 Z " fill="#0D2118" transform="translate(619.3321075439453,187.2823371887207)"/>
<path d="M0 0 C1.4616156 -0.00945648 1.4616156 -0.00945648 2.95275879 -0.019104 C4.53558655 -0.01303131 4.53558655 -0.01303131 6.15039062 -0.00683594 C7.23042358 -0.00874939 8.31045654 -0.01066284 9.42321777 -0.01263428 C11.70971916 -0.01399701 13.99622826 -0.01029445 16.28271484 -0.00195312 C19.79216817 0.00874495 23.30110956 -0.00184566 26.81054688 -0.01464844 C29.02799593 -0.01332686 31.24544466 -0.0107645 33.46289062 -0.00683594 C34.51810913 -0.0108844 35.57332764 -0.01493286 36.66052246 -0.019104 C37.63493286 -0.01279968 38.60934326 -0.00649536 39.61328125 0 C40.47328735 0.00159119 41.33329346 0.00318237 42.21936035 0.00482178 C44.30664062 0.25878906 44.30664062 0.25878906 46.30664062 2.25878906 C46.55664062 4.75878906 46.55664062 4.75878906 46.30664062 7.25878906 C43.81402745 9.75140224 43.05157272 9.51121659 39.61328125 9.51757812 C38.15166565 9.52703461 38.15166565 9.52703461 36.66052246 9.53668213 C35.0776947 9.53060944 35.0776947 9.53060944 33.46289062 9.52441406 C32.38285767 9.52632751 31.30282471 9.52824097 30.19006348 9.5302124 C27.90356209 9.53157514 25.61705299 9.52787258 23.33056641 9.51953125 C19.82111308 9.50883318 16.31217169 9.51942379 12.80273438 9.53222656 C10.58528532 9.53090498 8.36783659 9.52834262 6.15039062 9.52441406 C5.09517212 9.52846252 4.03995361 9.53251099 2.95275879 9.53668213 C1.97834839 9.53037781 1.00393799 9.52407349 0 9.51757812 C-0.8600061 9.51598694 -1.72001221 9.51439575 -2.6060791 9.51275635 C-4.69335938 9.25878906 -4.69335938 9.25878906 -6.69335938 7.25878906 C-6.94335938 4.75878906 -6.94335938 4.75878906 -6.69335938 2.25878906 C-4.2007462 -0.23382412 -3.43829147 0.00636154 0 0 Z " fill="#7B9A77" transform="translate(448.693359375,540.7412109375)"/>
<path d="M0 0 C0.33 0 0.66 0 1 0 C1 30.03 1 60.06 1 91 C3.97 91 6.94 91 10 91 C10 84.4 10 77.8 10 71 C10.99 70.505 10.99 70.505 12 70 C13.15209202 90.44930863 13.12133003 110.86863642 13.06866455 131.34222412 C13.05825913 135.82840492 13.05383084 140.31459175 13.04882812 144.80078125 C13.0382445 153.53387018 13.02127875 162.2669306 13 171 C14.02246826 170.98952637 15.04493652 170.97905273 16.09838867 170.96826172 C19.95447171 170.9315897 23.81053993 170.90893099 27.66674805 170.89013672 C29.32400113 170.88018517 30.98123715 170.86661907 32.63842773 170.84912109 C42.65403187 170.74614845 52.13824999 171.04287454 62 173 C62 173.33 62 173.66 62 174 C61.08347656 173.9278125 60.16695312 173.855625 59.22265625 173.78125 C43.05648654 172.68832585 27.35336695 173 11 173 C11 146.27 11 119.54 11 92 C7.37 92 3.74 92 0 92 C0 61.64 0 31.28 0 0 Z " fill="#03190D" transform="translate(661,408)"/>
<path d="M0 0 C3.83316603 1.39073352 6.97561315 3.19763004 10.375 5.4375 C30.70385723 18.23837421 52.86347898 26.38988033 76.5 30.375 C77.41056152 30.530896 78.32112305 30.68679199 79.25927734 30.84741211 C99.97495809 33.96100926 121.30386935 33.14239996 142.19827533 33.10139394 C146.00450116 33.09502953 149.81072829 33.09454648 153.61695862 33.09336853 C160.78439196 33.090293 167.95180956 33.08213202 175.11923605 33.07201904 C183.29615337 33.06073868 191.47307154 33.05531779 199.64999473 33.05032361 C216.43333895 33.03994504 233.21666745 33.02242094 250 33 C250 33.33 250 33.66 250 34 C242.21396081 35.05240265 234.51536313 35.17169507 226.66772461 35.20532227 C225.23784107 35.21491852 223.80796026 35.22492958 222.37808228 35.23532104 C218.52131782 35.26218705 214.66454136 35.28329483 210.80773616 35.30332303 C206.76784413 35.32529649 202.72798833 35.35262923 198.68812561 35.37937927 C191.04922108 35.42915341 183.41029628 35.47414847 175.77135235 35.51740164 C167.06995515 35.56690518 158.36859434 35.62177437 149.66723239 35.67708123 C131.77818876 35.79066651 113.88911073 35.89755597 96 36 C96 35.34 96 34.68 96 34 C94.741875 34.061875 93.48375 34.12375 92.1875 34.1875 C60.76753461 34.09899306 24.08690712 21.0724226 0 1 C0 0.67 0 0.34 0 0 Z " fill="#0B231A" transform="translate(334,690)"/>
<path d="M0 0 C2.97 0.33 5.94 0.66 9 1 C9.33 1.99 9.66 2.98 10 4 C12.26319608 5.63682849 14.51444836 7.14253349 16.875 8.625 C34.69129494 20.19029649 50.02356521 34.70594202 61 53 C61.66 53.66 62.32 54.32 63 55 C63.70303752 56.3145191 64.36531781 57.65114836 65 59 C65.55107422 60.10831177 65.55107422 60.10831177 66.11328125 61.23901367 C67.41898301 63.88364454 68.70982243 66.53526354 70 69.1875 C70.67675781 70.5497168 70.67675781 70.5497168 71.3671875 71.93945312 C73.47790565 76.30139582 75.22187374 80.35021657 76.1875 85.11328125 C76.5896875 87.03720703 76.5896875 87.03720703 77 89 C77.66 89.33 78.32 89.66 79 90 C78.01 91.98 78.01 91.98 77 94 C76.8047876 93.45287354 76.6095752 92.90574707 76.40844727 92.34204102 C69.79522424 73.97879459 62.02132054 57.44217123 50 42 C49.36312256 41.18160645 49.36312256 41.18160645 48.71337891 40.34667969 C43.65263891 33.91760158 38.37254024 28.14523619 32 23 C31.18015625 22.29359375 30.3603125 21.5871875 29.515625 20.859375 C22.76072745 15.11966437 15.62380487 10.49784889 8 6 C5.30501718 4.36925214 2.64506453 2.71151234 0 1 C0 0.67 0 0.34 0 0 Z " fill="#193225" transform="translate(737,207)"/>
<path d="M0 0 C0.66 0 1.32 0 2 0 C3.375 1.3984375 3.375 1.3984375 5 3.375 C24.86132059 26.59431706 51.00856121 41.20419422 80 50 C80 50.33 80 50.66 80 51 C73.6036509 50.50166511 68.30460846 49.34928717 62.375 46.9375 C61.59866211 46.62659424 60.82232422 46.31568848 60.02246094 45.99536133 C39.60397666 37.62394966 21.13306706 24.91485798 5.97265625 8.84765625 C4.05857228 7.05486077 2.39734252 6.02436783 0 5 C0 3.35 0 1.7 0 0 Z " fill="#1B3226" transform="translate(240,776)"/>
<path d="M0 0 C0.33 0 0.66 0 1 0 C1 25.41 1 50.82 1 77 C12.88 77 24.76 77 37 77 C41.29 77.66 45.58 78.32 50 79 C50 79.33 50 79.66 50 80 C48.62521484 79.89171875 48.62521484 79.89171875 47.22265625 79.78125 C31.05648654 78.68832585 15.35336695 79 -1 79 C-0.67 52.93 -0.34 26.86 0 0 Z " fill="#112A1E" transform="translate(673,502)"/>
<path d="M0 0 C-2.8933241 2.37176271 -5.50306345 3.71478151 -9.04296875 4.90234375 C-10.02612061 5.23355225 -11.00927246 5.56476074 -12.0222168 5.90600586 C-13.06676025 6.24639893 -14.11130371 6.58679199 -15.1875 6.9375 C-16.26233643 7.29013916 -17.33717285 7.64277832 -18.44458008 8.00610352 C-31.53104575 12.22839394 -44.17388887 15.51909179 -58 16 C-54.83365553 14.22391825 -51.91080176 13.45212569 -48.3515625 12.78125 C-46.71960938 12.46607422 -46.71960938 12.46607422 -45.0546875 12.14453125 C-43.92289063 11.93183594 -42.79109375 11.71914063 -41.625 11.5 C-39.38732333 11.07658641 -37.15031689 10.64961225 -34.9140625 10.21875 C-33.9235791 10.03248047 -32.9330957 9.84621094 -31.91259766 9.65429688 C-28.83643416 8.96325596 -25.93886325 8.14463794 -23 7 C-22.67 6.34 -22.34 5.68 -22 5 C-24.9615696 3.5192152 -27.83506295 3.64685963 -31.125 3.4375 C-32.40632812 3.35371094 -33.68765625 3.26992188 -35.0078125 3.18359375 C-36.48894531 3.09271484 -36.48894531 3.09271484 -38 3 C-38 2.67 -38 2.34 -38 2 C-36.76697144 1.96241577 -36.76697144 1.96241577 -35.5090332 1.92407227 C-31.77670626 1.80787345 -28.04461683 1.68525495 -24.3125 1.5625 C-22.37213867 1.50352539 -22.37213867 1.50352539 -20.39257812 1.44335938 C-19.14541016 1.40146484 -17.89824219 1.35957031 -16.61328125 1.31640625 C-14.89298706 1.26141968 -14.89298706 1.26141968 -13.13793945 1.20532227 C-8.65694744 0.91212112 -4.51695657 -0.1290559 0 0 Z " fill="#62866B" transform="translate(657,704)"/>
<path d="M0 0 C0.73927734 0.07863281 1.47855469 0.15726563 2.24023438 0.23828125 C4.06687249 0.45673843 5.88029883 0.78097346 7.6875 1.125 C8.1825 2.115 8.1825 2.115 8.6875 3.125 C7.65270508 3.05933838 6.61791016 2.99367676 5.55175781 2.92602539 C-11.02244792 1.95256627 -27.610934 1.802841 -44.20800781 1.59277344 C-48.17777087 1.54173127 -52.14747548 1.48648572 -56.1171875 1.43164062 C-63.84890828 1.32541616 -71.58067904 1.22369445 -79.3125 1.125 C-79.3125 0.795 -79.3125 0.465 -79.3125 0.125 C-71.59362007 -0.01922829 -63.87470435 -0.16141395 -56.15576172 -0.30224609 C-53.53531055 -0.35028931 -50.91486759 -0.39878305 -48.29443359 -0.44775391 C-44.50620616 -0.51846749 -40.71795115 -0.58750688 -36.9296875 -0.65625 C-35.77701385 -0.67812378 -34.62434021 -0.69999756 -33.43673706 -0.72253418 C-9.21755509 -1.15542786 -9.21755509 -1.15542786 0 0 Z " fill="#1A3528" transform="translate(679.3125,188.875)"/>
<path d="M0 0 C3.3 0 6.6 0 10 0 C9.67 0.99 9.34 1.98 9 3 C6.36 3 3.72 3 1 3 C1 28.74 1 54.48 1 81 C1.99 81.33 2.98 81.66 4 82 C2.02 82 0.04 82 -2 82 C-1.01 81.505 -1.01 81.505 0 81 C0 54.27 0 27.54 0 0 Z " fill="#879F83" transform="translate(662,500)"/>
<path d="M0 0 C2.71155407 2.37554016 3.91576331 4.69774967 5.3125 8 C10.22269628 19.10258032 16.29940363 31.29940363 25 40 C24.67 40.99 24.34 41.98 24 43 C16.52716239 34.66151454 11.18571505 25.85880212 6 16 C5.67805664 15.39849121 5.35611328 14.79698242 5.02441406 14.17724609 C0 4.76909722 0 4.76909722 0 0 Z " fill="#192F23" transform="translate(214,732)"/>
<path d="M0 0 C0.66 0.33 1.32 0.66 2 1 C1.443125 1.88558594 0.88625 2.77117187 0.3125 3.68359375 C-6.46880574 14.63237449 -12.34503546 25.97662424 -17 38 C-18.49019655 33.44171488 -16.7643886 30.45984209 -14.8125 26.3125 C-14.15359579 24.87111663 -13.49474125 23.42971054 -12.8359375 21.98828125 C-12.51592773 21.29814941 -12.19591797 20.60801758 -11.86621094 19.89697266 C-10.82769077 17.62264862 -9.88549164 15.31326166 -8.9375 13 C-6.81188529 8.1942624 -3.72398494 3.72398494 0 0 Z " fill="#152A1F" transform="translate(227,256)"/>
<path d="M0 0 C0 3.61770393 -0.63458538 4.08448793 -3 6.6875 C-3.63550781 7.38746094 -4.27101563 8.08742188 -4.92578125 8.80859375 C-8.21184174 12.28030737 -11.5886585 15.65196175 -15 19 C-15.69480469 19.71414063 -16.38960937 20.42828125 -17.10546875 21.1640625 C-18.99787235 22.99793816 -20.63515309 23.89640478 -23 25 C-23.66 25.66 -24.32 26.32 -25 27 C-25.99 26.67 -26.98 26.34 -28 26 C-27.11957031 25.26394531 -26.23914063 24.52789063 -25.33203125 23.76953125 C-24.15875156 22.78397631 -22.98558023 21.79829234 -21.8125 20.8125 C-20.9452832 20.08836914 -20.9452832 20.08836914 -20.06054688 19.34960938 C-17.31847192 17.04130899 -14.68329738 14.72297028 -12.19921875 12.13671875 C-10 10 -10 10 -8 10 C-7.690625 9.195625 -7.690625 9.195625 -7.375 8.375 C-5.42003056 4.9982346 -2.81776305 2.69525161 0 0 Z " fill="#1A3125" transform="translate(782,776)"/>
<path d="M0 0 C1 3 1 3 0.24658203 5.07788086 C-0.16221191 5.86557861 -0.57100586 6.65327637 -0.9921875 7.46484375 C-1.4459375 8.34245361 -1.8996875 9.22006348 -2.3671875 10.12426758 C-3.11355469 11.51681763 -3.11355469 11.51681763 -3.875 12.9375 C-4.37515625 13.87940186 -4.8753125 14.82130371 -5.390625 15.79174805 C-9.23644076 22.89101169 -13.26385316 30.22800225 -19 36 C-19.99 36 -20.98 36 -22 36 C-21.46632813 35.34257813 -20.93265625 34.68515625 -20.3828125 34.0078125 C-12.15371465 23.50076368 -5.88286305 11.95549588 0 0 Z " fill="#162B1F" transform="translate(806,737)"/>
<path d="M0 0 C0 0.33 0 0.66 0 1 C-4.26836489 1.55156044 -8.53675785 2.10290297 -12.80517578 2.65405273 C-14.25407655 2.84116884 -15.70296993 3.02834215 -17.15185547 3.21557617 C-19.24705039 3.48631983 -21.34227273 3.75685053 -23.4375 4.02734375 C-25.32275391 4.27085571 -25.32275391 4.27085571 -27.24609375 4.51928711 C-31.1631059 5.02088681 -35.08126624 5.51205689 -39 6 C-36.71331826 2.79864556 -33.99012809 2.33196264 -30.24755859 1.66918945 C-29.48523926 1.55148193 -28.72291992 1.43377441 -27.9375 1.3125 C-27.15197754 1.18512451 -26.36645508 1.05774902 -25.55712891 0.92651367 C-17.0388961 -0.33422537 -8.58688068 -0.27404938 0 0 Z " fill="#1A3125" transform="translate(357,189)"/>
<path d="M0 0 C-4.85887961 2.52248218 -9.66722728 4.92843462 -14.8125 6.8125 C-20.45797593 8.96657667 -25.28395564 12.18533407 -30.3125 15.48828125 C-31.199375 15.98714844 -32.08625 16.48601562 -33 17 C-33.66 16.67 -34.32 16.34 -35 16 C-31.33831364 11.66432192 -26.70960476 9.48607964 -21.75 6.9375 C-20.92886719 6.50373047 -20.10773438 6.06996094 -19.26171875 5.62304688 C-5.22804833 -1.68291308 -5.22804833 -1.68291308 0 0 Z " fill="#193124" transform="translate(303,200)"/>
<path d="M0 0 C0.99 0.33 1.98 0.66 3 1 C1.2711195 2.41701589 -0.45811746 3.83359686 -2.1875 5.25 C-3.63189453 6.43335938 -3.63189453 6.43335938 -5.10546875 7.640625 C-6.93420447 9.13125438 -8.77881244 10.60280313 -10.64453125 12.046875 C-12.87736352 13.89831137 -14.65419245 15.77110032 -16.5 18 C-19.10604426 21.05654207 -21.73540876 23.62575183 -25 26 C-23.51823611 20.56338742 -19.78390844 17.37634744 -15.875 13.5625 C-15.235625 12.91990234 -14.59625 12.27730469 -13.9375 11.61523438 C-4.80111475 2.57975297 -4.80111475 2.57975297 0 0 Z " fill="#1A3225" transform="translate(261,220)"/>
<path d="M0 0 C0.33 0 0.66 0 1 0 C1.04961351 4.18089192 1.08582016 8.36162566 1.10986328 12.54272461 C1.11989146 13.96365343 1.13351741 15.38456178 1.15087891 16.80541992 C1.17526821 18.85340444 1.1865149 20.90111498 1.1953125 22.94921875 C1.20578613 24.17987061 1.21625977 25.41052246 1.22705078 26.6784668 C1.0066407 29.90285303 0.38799202 32.10634881 -1 35 C-2.19022394 31.42932819 -2.03427218 28.72544856 -1.9140625 24.9609375 C-1.89282318 24.27947662 -1.87158386 23.59801575 -1.84970093 22.89590454 C-1.80351402 21.45850948 -1.75459199 20.02120006 -1.703125 18.58398438 C-1.62505241 16.37648196 -1.55802156 14.16883509 -1.4921875 11.9609375 C-1.4459719 10.56508218 -1.39911897 9.16924778 -1.3515625 7.7734375 C-1.30854004 6.49903809 -1.26551758 5.22463867 -1.22119141 3.91162109 C-1 1 -1 1 0 0 Z " fill="#172E21" transform="translate(200,334)"/>
<path d="M0 0 C5.83028038 0.54973427 10.58290168 2.2453859 15.9375 4.5625 C16.71673828 4.89185547 17.49597656 5.22121094 18.29882812 5.56054688 C20.20235303 6.36633349 22.10163025 7.18214217 24 8 C21.70434458 9.4389848 20.53716694 10.09055941 17.81762695 9.63208008 C17.04894287 9.34743896 16.28025879 9.06279785 15.48828125 8.76953125 C14.64845703 8.46080078 13.80863281 8.15207031 12.94335938 7.83398438 C11.64108398 7.32834961 11.64108398 7.32834961 10.3125 6.8125 C8.99282227 6.33586914 8.99282227 6.33586914 7.64648438 5.84960938 C2.82221044 4.0307428 2.82221044 4.0307428 1 3 C0.67 2.01 0.34 1.02 0 0 Z " fill="#ECECE8" transform="translate(365,579)"/>
<path d="M0 0 C0 0.99 0 1.98 0 3 C-7.25164073 8.48551532 -16.49187139 13.89550727 -25 17 C-27.15991211 16.55834961 -27.15991211 16.55834961 -29 16 C-28.16190796 15.59273682 -28.16190796 15.59273682 -27.30688477 15.17724609 C-24.72212158 13.9164771 -22.14234295 12.64580478 -19.5625 11.375 C-18.68400391 10.94832031 -17.80550781 10.52164063 -16.90039062 10.08203125 C-10.94353824 7.13657657 -5.43510146 3.82276279 0 0 Z " fill="#172B21" transform="translate(752,803)"/>
<path d="M0 0 C0.33 0 0.66 0 1 0 C0.35714676 6.23505228 -0.50005935 12.3861106 -1.5625 18.5625 C-1.70107422 19.38041016 -1.83964844 20.19832031 -1.98242188 21.04101562 C-2.3193499 23.02772915 -2.65934584 25.01392199 -3 27 C-3.33 27 -3.66 27 -4 27 C-4.16709454 24.68753088 -4.33366462 22.37502385 -4.5 20.0625 C-4.5928125 18.77472656 -4.685625 17.48695313 -4.78125 16.16015625 C-5.00385689 12.94428177 -4.79818289 11.0929587 -4 8 C-3.34 8.33 -2.68 8.66 -2 9 C-1.7834375 7.0509375 -1.7834375 7.0509375 -1.5625 5.0625 C-1.125 1.125 -1.125 1.125 0 0 Z " fill="#1D3528" transform="translate(205,305)"/>
<path d="M0 0 C2.9719385 1.12451727 5.33440687 2.22293791 8 4 C8 4.66 8 5.32 8 6 C8.7425 6.0825 9.485 6.165 10.25 6.25 C13.51221354 7.1396946 14.80954878 8.48503749 17 11 C16.01 11.33 15.02 11.66 14 12 C11.47126064 10.47804628 9.17316591 8.93728146 6.8125 7.1875 C6.15830078 6.72279297 5.50410156 6.25808594 4.83007812 5.77929688 C3.1764001 4.57740575 1.58257925 3.29407735 0 2 C0 1.34 0 0.68 0 0 Z " fill="#E8E8E4" transform="translate(447,619)"/>
<path d="M0 0 C2.66853907 0.32206506 5.3343679 0.65542996 8 1 C9.134375 1.144375 10.26875 1.28875 11.4375 1.4375 C12.283125 1.623125 13.12875 1.80875 14 2 C14.33 2.66 14.66 3.32 15 4 C15.99 4.33 16.98 4.66 18 5 C18 5.66 18 6.32 18 7 C11.70277443 5.60061654 5.93915684 3.50710309 0 1 C0 0.67 0 0.34 0 0 Z " fill="#1B3527" transform="translate(714,198)"/>
<path d="M0 0 C1.32 0 2.64 0 4 0 C4.8353125 0.86625 4.8353125 0.86625 5.6875 1.75 C8.96497726 4.93889679 12.79848569 6.3122122 17 8 C16.01 8.495 16.01 8.495 15 9 C14.67 9.66 14.34 10.32 14 11 C11.6638026 9.35810616 9.33099647 7.7117475 7 6.0625 C6.33226562 5.59392578 5.66453125 5.12535156 4.9765625 4.64257812 C3.29970233 3.45337627 1.64761213 2.22940446 0 1 C0 0.67 0 0.34 0 0 Z " fill="#E9EAE6" transform="translate(490,650)"/>
<path d="M0 0 C-2.50884471 2.31585666 -3.64422534 2.98576901 -7.125 3.125 C-8.07375 3.08375 -9.0225 3.0425 -10 3 C-10.99 3.495 -10.99 3.495 -12 4 C-13.71233688 3.9129796 -15.42175406 3.75902838 -17.125 3.5625 C-18.03507813 3.46066406 -18.94515625 3.35882812 -19.8828125 3.25390625 C-20.58148437 3.17011719 -21.28015625 3.08632813 -22 3 C-22 2.67 -22 2.34 -22 2 C-19.64655194 1.66076424 -17.2924516 1.32849466 -14.9375 1 C-14.28072266 0.90460937 -13.62394531 0.80921875 -12.94726562 0.7109375 C-8.59861237 0.11112326 -4.38670929 -0.09127093 0 0 Z " fill="#142E23" transform="translate(607,720)"/>
<path d="M0 0 C0.66 0.33 1.32 0.66 2 1 C-2.625 6.875 -2.625 6.875 -6 8 C-6.99 9.485 -6.99 9.485 -8 11 C-11.125 12.1875 -11.125 12.1875 -14 13 C-12.69841744 9.09525233 -10.91016149 8.26649727 -7.5625 5.9375 C-3.59629598 3.18881869 -3.59629598 3.18881869 0 0 Z " fill="#0E1B13" transform="translate(703,676)"/>
<path d="M0 0 C0.66 0.33 1.32 0.66 2 1 C0.716961 3.17221487 -0.57572113 5.3375324 -1.875 7.5 C-2.23980469 8.12003906 -2.60460937 8.74007813 -2.98046875 9.37890625 C-3.9322518 10.95367458 -4.96110259 12.48129053 -6 14 C-6.66 14 -7.32 14 -8 14 C-7.53895389 9.85058497 -7.18754257 7.71531404 -4 5 C-2.65263027 3.34466005 -1.31665664 1.67987227 0 0 Z " fill="#1C3327" transform="translate(227,256)"/>
<path d="M0 0 C0.66 0.33 1.32 0.66 2 1 C-3.75 5 -3.75 5 -6 5 C-6 5.66 -6 6.32 -6 7 C-13.625 9.125 -13.625 9.125 -17 8 C-14.21443118 6.63301613 -11.42068672 5.28365462 -8.625 3.9375 C-7.8309375 3.54755859 -7.036875 3.15761719 -6.21875 2.75585938 C-5.45820312 2.39169922 -4.69765625 2.02753906 -3.9140625 1.65234375 C-2.8614624 1.14175415 -2.8614624 1.14175415 -1.78759766 0.62084961 C-1.19769043 0.41596924 -0.6077832 0.21108887 0 0 Z " fill="#14261A" transform="translate(711,487)"/>
<path d="M0 0 C2.02907167 3.3146667 2.12742133 5.4315979 1.625 9.25 C1.51414062 10.14203125 1.40328125 11.0340625 1.2890625 11.953125 C1.19367188 12.62859375 1.09828125 13.3040625 1 14 C0.01 14 -0.98 14 -2 14 C-1.03644647 4.58997722 -1.03644647 4.58997722 0 0 Z " fill="#E7E8E4" transform="translate(359,424)"/>
<path d="M0 0 C0.66 0.33 1.32 0.66 2 1 C0.02 3.97 0.02 3.97 -2 7 C-3.65 6.67 -5.3 6.34 -7 6 C-7 5.34 -7 4.68 -7 4 C-1.7265625 0.77734375 -1.7265625 0.77734375 0 0 Z " fill="#7E967B" transform="translate(513,656)"/>
<path d="M0 0 C2.97 0.33 5.94 0.66 9 1 C9.33 1.99 9.66 2.98 10 4 C10.66 4.66 11.32 5.32 12 6 C7.01208429 5.52496041 3.9767259 4.0298864 0 1 C0 0.67 0 0.34 0 0 Z " fill="#203B2D" transform="translate(737,207)"/>
<path d="M0 0 C0.66 0.33 1.32 0.66 2 1 C-1.3 4.3 -4.6 7.6 -8 11 C-8.66 10.67 -9.32 10.34 -10 10 C-6.66666667 6.66666667 -3.33333333 3.33333333 0 0 Z " fill="#2F5541" transform="translate(256,226)"/>
<path d="M0 0 C2 1 2 1 2.8515625 3.50390625 C3.10679687 4.51324219 3.36203125 5.52257812 3.625 6.5625 C3.88539063 7.57441406 4.14578125 8.58632813 4.4140625 9.62890625 C4.60742188 10.41136719 4.80078125 11.19382812 5 12 C4.34 12 3.68 12 3 12 C-0.42857143 4.71428571 -0.42857143 4.71428571 0 0 Z " fill="#172C21" transform="translate(209,718)"/>
<path d="M0 0 C0.99 0.99 1.98 1.98 3 3 C2.85546875 5.69921875 2.85546875 5.69921875 2.1875 8.6875 C1.97480469 9.68136719 1.76210938 10.67523438 1.54296875 11.69921875 C1.36378906 12.45847656 1.18460938 13.21773438 1 14 C0.67 14 0.34 14 0 14 C0 9.38 0 4.76 0 0 Z " fill="#1C3729" transform="translate(821,333)"/>
<path d="M0 0 C-4.31369972 2.87579981 -7.80734761 4 -13 4 C-13 3.34 -13 2.68 -13 2 C-4.57142857 -0.28571429 -4.57142857 -0.28571429 0 0 Z " fill="#172F23" transform="translate(317,195)"/>
<path d="M0 0 C4.10958767 1.45044271 7.43258745 3.51110752 11 6 C9.234375 6.64453125 9.234375 6.64453125 7 7 C5.078125 6.07421875 5.078125 6.07421875 3.25 4.6875 C2.63640625 4.23761719 2.0228125 3.78773438 1.390625 3.32421875 C0.93171875 2.88722656 0.4728125 2.45023438 0 2 C0 1.34 0 0.68 0 0 Z " fill="#162B21" transform="translate(271,804)"/>
<path d="M0 0 C0.66 0 1.32 0 2 0 C3.2890625 1.53125 3.2890625 1.53125 4.625 3.5 C5.07101563 4.1496875 5.51703125 4.799375 5.9765625 5.46875 C6.31429687 5.9740625 6.65203125 6.479375 7 7 C3.89448334 7 2.64738916 6.4606285 0 5 C0 3.35 0 1.7 0 0 Z " fill="#223C2D" transform="translate(240,776)"/>
<path d="M0 0 C2.64 0.99 5.28 1.98 8 3 C8 3.66 8 4.32 8 5 C5 6 5 6 1.8125 4.5625 C0.884375 4.046875 -0.04375 3.53125 -1 3 C-0.67 2.01 -0.34 1.02 0 0 Z " fill="#E2E2DE" transform="translate(408,596)"/>
<path d="M0 0 C2.875 0.6875 2.875 0.6875 6 2 C7.375 4.625 7.375 4.625 8 7 C6.66144944 6.21718695 5.32926356 5.42348123 4 4.625 C3.2575 4.18414063 2.515 3.74328125 1.75 3.2890625 C1.1725 2.86367188 0.595 2.43828125 0 2 C0 1.34 0 0.68 0 0 Z " fill="#E7E8E4" transform="translate(429,608)"/>
<path d="M0 0 C0.33 0 0.66 0 1 0 C2.51708428 9.41002278 2.51708428 9.41002278 0 14 C-0.89214652 11.32356043 -1.13540211 9.74615622 -1.125 7 C-1.12757813 6.319375 -1.13015625 5.63875 -1.1328125 4.9375 C-1 3 -1 3 0 0 Z " fill="#1D3526" transform="translate(199,355)"/>
<path d="M0 0 C1.98 0.66 3.96 1.32 6 2 C6 3.32 6 4.64 6 6 C3.96166576 4.7260411 1.96147874 3.38938077 0 2 C0 1.34 0 0.68 0 0 Z " fill="#E5E5E2" transform="translate(439,614)"/>
<path d="M0 0 C0.763125 0.309375 1.52625 0.61875 2.3125 0.9375 C4.18789677 1.67893593 6.08684652 2.36228217 8 3 C7.67 3.99 7.34 4.98 7 6 C4.0625 4.6875 4.0625 4.6875 1 3 C0.67 2.01 0.34 1.02 0 0 Z " fill="#E3E5E0" transform="translate(420,603)"/>
<path d="M0 0 C6.75 0.75 6.75 0.75 9 3 C6.6875 3.625 6.6875 3.625 4 4 C1 2 1 2 0 0 Z " fill="#DEDFD9" transform="translate(365,579)"/>
<path d="M0 0 C0 0.99 0 1.98 0 3 C-3.63 3 -7.26 3 -11 3 C-6.93675441 0.9683772 -4.47525541 0 0 0 Z " fill="#EBECE8" transform="translate(446,344)"/>
<path d="M0 0 C0.99 0.33 1.98 0.66 3 1 C0.36 2.98 -2.28 4.96 -5 7 C-5 6.01 -5 5.02 -5 4 C-2.6875 1.75 -2.6875 1.75 0 0 Z " fill="#14281E" transform="translate(261,220)"/>
<path d="M0 0 C3.55780196 0.60990891 6.6828589 1.5783681 10 3 C8.02 3.99 8.02 3.99 6 5 C3.63158688 3.42105792 1.93254772 2.0245738 0 0 Z " fill="#E1E1DD" transform="translate(379,584)"/>
<path d="M0 0 C-0.66 0 -1.32 0 -2 0 C-2 0.66 -2 1.32 -2 2 C-5.28696233 2.79953138 -6.71023192 3.09658936 -10 2 C-3.375 -1.125 -3.375 -1.125 0 0 Z " fill="#B3C8A7" transform="translate(641,326)"/>
<path d="M0 0 C-1.5 1.5625 -1.5 1.5625 -4 3 C-6.77437543 2.96823234 -9.25286467 2.50364148 -12 2 C-12 1.67 -12 1.34 -12 1 C-7.9472484 0.01751476 -4.16138263 -0.08159574 0 0 Z " fill="#0C251A" transform="translate(607,720)"/>
<path d="M0 0 C2.29633824 3.44450737 2.54016485 5.93812283 3 10 C2.34 9.67 1.68 9.34 1 9 C0.5859375 6.93359375 0.5859375 6.93359375 0.375 4.4375 C0.30023438 3.61121094 0.22546875 2.78492188 0.1484375 1.93359375 C0.09945312 1.29550781 0.05046875 0.65742187 0 0 Z " fill="#162A1F" transform="translate(206,707)"/>
<path d="M0 0 C0.99 0.33 1.98 0.66 3 1 C1.02 3.31 -0.96 5.62 -3 8 C-3.33 7.34 -3.66 6.68 -4 6 C-2.68 4.02 -1.36 2.04 0 0 Z " fill="#142A1E" transform="translate(233,247)"/>
<path d="M0 0 C0.99 0 1.98 0 3 0 C3 1.32 3 2.64 3 4 C2.34 4 1.68 4 1 4 C0.67 2.68 0.34 1.36 0 0 Z " fill="#375B46" transform="translate(797,256)"/>
<path d="M0 0 C0.99 0.99 1.98 1.98 3 3 C2.67 3.66 2.34 4.32 2 5 C1.34 3.35 0.68 1.7 0 0 Z " fill="#3A5E47" transform="translate(218,747)"/>
<path d="M0 0 C0.625 1.875 0.625 1.875 1 4 C0.34 4.66 -0.32 5.32 -1 6 C-0.67 4.02 -0.34 2.04 0 0 Z " fill="#395C46" transform="translate(202,701)"/>
<path d="M0 0 C0.33 0 0.66 0 1 0 C1 1.65 1 3.3 1 5 C0.34 4.01 -0.32 3.02 -1 2 C-0.67 1.34 -0.34 0.68 0 0 Z " fill="#395C46" transform="translate(203,705)"/>
<path d="M0 0 C0.33 0 0.66 0 1 0 C1 1.98 1 3.96 1 6 C0.67 6 0.34 6 0 6 C0 4.02 0 2.04 0 0 Z " fill="#395B46" transform="translate(197,656)"/>
<path d="M0 0 C1.65 0 3.3 0 5 0 C5 0.33 5 0.66 5 1 C3.35 1 1.7 1 0 1 C0 0.67 0 0.34 0 0 Z " fill="#375B45" transform="translate(463,837)"/>
<path d="M0 0 C0.66 0.66 1.32 1.32 2 2 C1.01 2.33 0.02 2.66 -1 3 C-0.67 2.01 -0.34 1.02 0 0 Z " fill="#3A5D48" transform="translate(225,759)"/>
<path d="M0 0 C0.66 0.33 1.32 0.66 2 1 C1.67 1.66 1.34 2.32 1 3 C0.34 2.34 -0.32 1.68 -1 1 C-0.67 0.67 -0.34 0.34 0 0 Z " fill="#395C47" transform="translate(209,727)"/>
<path d="M0 0 C0.33 0.99 0.66 1.98 1 3 C0.01 3.495 0.01 3.495 -1 4 C-0.67 2.68 -0.34 1.36 0 0 Z " fill="#3B6049" transform="translate(820,701)"/>
<path d="M0 0 C0.33 0 0.66 0 1 0 C1 1.65 1 3.3 1 5 C0.67 5 0.34 5 0 5 C0 3.35 0 1.7 0 0 Z " fill="#3B5B48" transform="translate(825,529)"/>
<path d="M0 0 C0.33 1.32 0.66 2.64 1 4 C0.34 3.34 -0.32 2.68 -1 2 C-0.67 1.34 -0.34 0.68 0 0 Z " fill="#395C47" transform="translate(197,476)"/>
<path d="M0 0 C1.32 0.33 2.64 0.66 4 1 C3.01 1.33 2.02 1.66 1 2 C0.67 1.34 0.34 0.68 0 0 Z " fill="#3C5F4A" transform="translate(261,216)"/>
<path d="M0 0 C4 1 4 1 4 1 Z " fill="#385C45" transform="translate(431,837)"/>
<path d="M0 0 C4 1 4 1 4 1 Z " fill="#375C46" transform="translate(383,837)"/>
<path d="M0 0 C4 1 4 1 4 1 Z " fill="#375C46" transform="translate(376,837)"/>
<path d="M0 0 C1.485 0.99 1.485 0.99 3 2 C2.01 2 1.02 2 0 2 C0 1.34 0 0.68 0 0 Z " fill="#385B46" transform="translate(344,834)"/>
<path d="M0 0 C1 4 1 4 1 4 Z " fill="#395D46" transform="translate(201,696)"/>
<path d="M0 0 C1 4 1 4 1 4 Z " fill="#3C5C49" transform="translate(825,552)"/>
<path d="M0 0 C1 4 1 4 1 4 Z " fill="#3C5B49" transform="translate(825,544)"/>
<path d="M0 0 C1 4 1 4 1 4 Z " fill="#395E48" transform="translate(823,329)"/>
<path d="M0 0 C1.485 0.99 1.485 0.99 3 2 C2.01 2 1.02 2 0 2 C0 1.34 0 0.68 0 0 Z " fill="#3A5D47" transform="translate(232,242)"/>
<path d="M0 0 C0.99 0.495 0.99 0.495 2 1 C1.67 1.66 1.34 2.32 1 3 C0.67 2.01 0.34 1.02 0 0 Z " fill="#395E48" transform="translate(248,226)"/>
<path d="M0 0 C0.99 1.485 0.99 1.485 2 3 C1.34 3 0.68 3 0 3 C0 2.01 0 1.02 0 0 Z " fill="#395E47" transform="translate(250,224)"/>
<path d="M0 0 C4 1 4 1 4 1 Z " fill="#3B5E48" transform="translate(353,186)"/>
<path d="M0 0 C0.66 0.66 1.32 1.32 2 2 C1.34 2 0.68 2 0 2 C0 1.34 0 0.68 0 0 Z " fill="#395C46" transform="translate(419,837)"/>
<path d="M0 0 C3 1 3 1 3 1 Z " fill="#395C45" transform="translate(648,837)"/>
<path d="M0 0 C3 1 3 1 3 1 Z " fill="#385D46" transform="translate(616,837)"/>
<path d="M0 0 C3 1 3 1 3 1 Z " fill="#375B43" transform="translate(561,837)"/>
<path d="M0 0 C3 1 3 1 3 1 Z " fill="#365B45" transform="translate(552,837)"/>
<path d="M0 0 C3 1 3 1 3 1 Z " fill="#375C45" transform="translate(456,837)"/>
<path d="M0 0 C3 1 3 1 3 1 Z " fill="#375B45" transform="translate(447,837)"/>
<path d="M0 0 C3 1 3 1 3 1 Z " fill="#385C47" transform="translate(439,837)"/>
<path d="M0 0 C3 1 3 1 3 1 Z " fill="#375B45" transform="translate(393,837)"/>
<path d="M0 0 C3 1 3 1 3 1 Z " fill="#3A5D48" transform="translate(300,823)"/>
<path d="" fill="#395B46" transform="translate(0,0)"/>
<path d="M0 0 C0.99 0.495 0.99 0.495 2 1 C1.01 1.495 1.01 1.495 0 2 C0 1.34 0 0.68 0 0 Z " fill="#395B47" transform="translate(208,730)"/>
<path d="" fill="#3A5F48" transform="translate(0,0)"/>
<path d="" fill="#3C6049" transform="translate(0,0)"/>
<path d="" fill="#3A5C47" transform="translate(0,0)"/>
<path d="" fill="#3B5C47" transform="translate(0,0)"/>
<path d="" fill="#3A5E49" transform="translate(0,0)"/>
<path d="" fill="#3B5D48" transform="translate(0,0)"/>
<path d="M0 0 C0.99 0.495 0.99 0.495 2 1 C1.01 1.495 1.01 1.495 0 2 C0 1.34 0 0.68 0 0 Z " fill="#395D48" transform="translate(200,304)"/>
<path d="M0 0 C3 1 3 1 3 1 Z " fill="#395E48" transform="translate(306,194)"/>
<path d="M0 0 C3 1 3 1 3 1 Z " fill="#385D47" transform="translate(659,186)"/>
<path d="" fill="#365B45" transform="translate(0,0)"/>
<path d="M0 0 C2 1 2 1 2 1 Z " fill="#375B45" transform="translate(491,838)"/>
<path d="M0 0 C2 1 2 1 2 1 Z " fill="#365B45" transform="translate(435,838)"/>
<path d="M0 0 C2 1 2 1 2 1 Z " fill="#385B45" transform="translate(641,837)"/>
<path d="M0 0 C2 1 2 1 2 1 Z " fill="#365B44" transform="translate(585,837)"/>
<path d="M0 0 C2 1 2 1 2 1 Z " fill="#375C45" transform="translate(576,837)"/>
<path d="M0 0 C2 1 2 1 2 1 Z " fill="#385B44" transform="translate(520,837)"/>
<path d="M0 0 C2 1 2 1 2 1 Z " fill="#385C45" transform="translate(512,837)"/>
<path d="M0 0 C2 1 2 1 2 1 Z " fill="#365A44" transform="translate(504,837)"/>
<path d="M0 0 C2 1 2 1 2 1 Z " fill="#385C45" transform="translate(480,837)"/>
<path d="M0 0 C2 1 2 1 2 1 Z " fill="#385B46" transform="translate(425,837)"/>
<path d="M0 0 C2 1 2 1 2 1 Z " fill="#375B45" transform="translate(400,837)"/>
<path d="M0 0 C2 1 2 1 2 1 Z " fill="#385C46" transform="translate(369,837)"/>
<path d="M0 0 C2 1 2 1 2 1 Z " fill="#395A46" transform="translate(662,836)"/>
<path d="M0 0 C2 1 2 1 2 1 Z " fill="#395C45" transform="translate(357,836)"/>
<path d="" fill="#395D47" transform="translate(0,0)"/>
<path d="" fill="#395A45" transform="translate(0,0)"/>
<path d="M0 0 C2 1 2 1 2 1 Z " fill="#395A45" transform="translate(315,828)"/>
<path d="M0 0 C2 1 2 1 2 1 Z " fill="#3B5C47" transform="translate(308,826)"/>
<path d="M0 0 C2 1 2 1 2 1 Z " fill="#3A5E48" transform="translate(723,822)"/>
<path d="M0 0 C2 1 2 1 2 1 Z " fill="#3A5E48" transform="translate(725,821)"/>
<path d="M0 0 C2 1 2 1 2 1 Z " fill="#3B5B46" transform="translate(293,820)"/>
<path d="M0 0 C2 1 2 1 2 1 Z " fill="#385A45" transform="translate(283,815)"/>
<path d="M0 0 C2 1 2 1 2 1 Z " fill="#395B48" transform="translate(275,810)"/>
<path d="M0 0 C2 1 2 1 2 1 Z " fill="#385C48" transform="translate(265,805)"/>
<path d="" fill="#395E48" transform="translate(0,0)"/>
<path d="M0 0 C2 1 2 1 2 1 Z " fill="#385B45" transform="translate(257,797)"/>
<path d="M0 0 C2 1 2 1 2 1 Z " fill="#3C5E48" transform="translate(789,771)"/>
<path d="M0 0 C2 1 2 1 2 1 Z " fill="#3A5D48" transform="translate(790,769)"/>
<path d="" fill="#3A5E47" transform="translate(0,0)"/>
<path d="" fill="#395C46" transform="translate(0,0)"/>
<path d="" fill="#3B5D47" transform="translate(0,0)"/>
<path d="" fill="#3A5E47" transform="translate(0,0)"/>
<path d="" fill="#395A45" transform="translate(0,0)"/>
<path d="" fill="#3A5A46" transform="translate(0,0)"/>
<path d="" fill="#3C5B49" transform="translate(0,0)"/>
<path d="" fill="#3B5B48" transform="translate(0,0)"/>
<path d="" fill="#3A5E48" transform="translate(0,0)"/>
<path d="" fill="#3D5C49" transform="translate(0,0)"/>
<path d="" fill="#3C5B49" transform="translate(0,0)"/>
<path d="" fill="#395D48" transform="translate(0,0)"/>
<path d="M0 0 C2 1 2 1 2 1 Z " fill="#3B5C47" transform="translate(196,420)"/>
<path d="" fill="#3A5D47" transform="translate(0,0)"/>
<path d="" fill="#3D5D49" transform="translate(0,0)"/>
<path d="" fill="#3A5C47" transform="translate(0,0)"/>
<path d="M0 0 C2 1 2 1 2 1 Z " fill="#395A46" transform="translate(196,382)"/>
<path d="" fill="#3B5C46" transform="translate(0,0)"/>
<path d="" fill="#3A5E48" transform="translate(0,0)"/>
<path d="" fill="#395B46" transform="translate(0,0)"/>
<path d="" fill="#3A5B48" transform="translate(0,0)"/>
<path d="M0 0 C2 1 2 1 2 1 Z " fill="#385B46" transform="translate(201,296)"/>
<path d="" fill="#395C47" transform="translate(0,0)"/>
<path d="" fill="#3A5D47" transform="translate(0,0)"/>
<path d="" fill="#3B5C48" transform="translate(0,0)"/>
<path d="M0 0 C2 1 2 1 2 1 Z " fill="#3A5D48" transform="translate(228,249)"/>
<path d="M0 0 C2 1 2 1 2 1 Z " fill="#3A5B49" transform="translate(758,217)"/>
<path d="M0 0 C2 1 2 1 2 1 Z " fill="#395D48" transform="translate(756,216)"/>
<path d="" fill="#385D47" transform="translate(0,0)"/>
<path d="M0 0 C2 1 2 1 2 1 Z " fill="#3B5D49" transform="translate(281,205)"/>
<path d="M0 0 C2 1 2 1 2 1 Z " fill="#395C47" transform="translate(708,193)"/>
<path d="" fill="#57655A" transform="translate(0,0)"/>
<path d="" fill="#385C46" transform="translate(0,0)"/>
<path d="" fill="#385B47" transform="translate(0,0)"/>
<path d="" fill="#385D48" transform="translate(0,0)"/>
<path d="" fill="#385A45" transform="translate(0,0)"/>
<path d="" fill="#385B46" transform="translate(0,0)"/>
<path d="" fill="#385D46" transform="translate(0,0)"/>
<path d="" fill="#375B47" transform="translate(0,0)"/>
<path d="" fill="#375A46" transform="translate(0,0)"/>
<path d="" fill="#365B45" transform="translate(0,0)"/>
<path d="" fill="#375A45" transform="translate(0,0)"/>
<path d="" fill="#375D46" transform="translate(0,0)"/>
<path d="" fill="#3A5B46" transform="translate(0,0)"/>
<path d="" fill="#385C47" transform="translate(0,0)"/>
<path d="" fill="#395845" transform="translate(0,0)"/>
<path d="" fill="#385C45" transform="translate(0,0)"/>
<path d="" fill="#385C45" transform="translate(0,0)"/>
<path d="" fill="#385B45" transform="translate(0,0)"/>
<path d="" fill="#375C44" transform="translate(0,0)"/>
<path d="" fill="#385B45" transform="translate(0,0)"/>
<path d="" fill="#375B44" transform="translate(0,0)"/>
<path d="" fill="#395A46" transform="translate(0,0)"/>
<path d="" fill="#385C46" transform="translate(0,0)"/>
<path d="" fill="#385C46" transform="translate(0,0)"/>
<path d="" fill="#385A45" transform="translate(0,0)"/>
<path d="" fill="#385B47" transform="translate(0,0)"/>
<path d="" fill="#3A5D49" transform="translate(0,0)"/>
<path d="" fill="#3A5A48" transform="translate(0,0)"/>
<path d="" fill="#3A5F46" transform="translate(0,0)"/>
<path d="" fill="#395D48" transform="translate(0,0)"/>
<path d="" fill="#3C5E49" transform="translate(0,0)"/>
<path d="" fill="#395E47" transform="translate(0,0)"/>
<path d="" fill="#3A5E47" transform="translate(0,0)"/>
<path d="" fill="#3A5A46" transform="translate(0,0)"/>
<path d="" fill="#395D48" transform="translate(0,0)"/>
<path d="" fill="#395D46" transform="translate(0,0)"/>
<path d="" fill="#375B46" transform="translate(0,0)"/>
<path d="" fill="#3B5C47" transform="translate(0,0)"/>
<path d="" fill="#396048" transform="translate(0,0)"/>
<path d="" fill="#3D6049" transform="translate(0,0)"/>
<path d="" fill="#3A5E48" transform="translate(0,0)"/>
<path d="" fill="#3B5E48" transform="translate(0,0)"/>
<path d="" fill="#3B5C48" transform="translate(0,0)"/>
<path d="" fill="#3B5E4B" transform="translate(0,0)"/>
<path d="" fill="#3B5C47" transform="translate(0,0)"/>
<path d="" fill="#3F634C" transform="translate(0,0)"/>
<path d="" fill="#395946" transform="translate(0,0)"/>
<path d="" fill="#3A5E47" transform="translate(0,0)"/>
<path d="" fill="#395B47" transform="translate(0,0)"/>
<path d="" fill="#3C5B48" transform="translate(0,0)"/>
<path d="" fill="#385846" transform="translate(0,0)"/>
<path d="" fill="#375B46" transform="translate(0,0)"/>
<path d="" fill="#3C6047" transform="translate(0,0)"/>
<path d="" fill="#3A5F48" transform="translate(0,0)"/>
<path d="" fill="#3C5D48" transform="translate(0,0)"/>
<path d="" fill="#3A5C49" transform="translate(0,0)"/>
<path d="" fill="#3B5F4A" transform="translate(0,0)"/>
<path d="" fill="#3A5E44" transform="translate(0,0)"/>
<path d="" fill="#385B46" transform="translate(0,0)"/>
<path d="" fill="#3B5C47" transform="translate(0,0)"/>
<path d="" fill="#395C49" transform="translate(0,0)"/>
<path d="" fill="#385944" transform="translate(0,0)"/>
<path d="" fill="#3B5D47" transform="translate(0,0)"/>
<path d="" fill="#385A47" transform="translate(0,0)"/>
<path d="" fill="#3A5D46" transform="translate(0,0)"/>
<path d="" fill="#3A5D46" transform="translate(0,0)"/>
<path d="" fill="#3A5E48" transform="translate(0,0)"/>
<path d="" fill="#385A45" transform="translate(0,0)"/>
<path d="" fill="#395C47" transform="translate(0,0)"/>
<path d="" fill="#3B5B46" transform="translate(0,0)"/>
<path d="" fill="#395E46" transform="translate(0,0)"/>
<path d="" fill="#365B46" transform="translate(0,0)"/>
<path d="" fill="#3A5E47" transform="translate(0,0)"/>
<path d="" fill="#395E49" transform="translate(0,0)"/>
<path d="" fill="#3B5D47" transform="translate(0,0)"/>
<path d="" fill="#3B5D48" transform="translate(0,0)"/>
<path d="" fill="#395B47" transform="translate(0,0)"/>
<path d="" fill="#3B5D48" transform="translate(0,0)"/>
<path d="" fill="#3B5D46" transform="translate(0,0)"/>
<path d="" fill="#3A5C47" transform="translate(0,0)"/>
<path d="" fill="#3B5F47" transform="translate(0,0)"/>
<path d="" fill="#395D48" transform="translate(0,0)"/>
<path d="" fill="#3A5D48" transform="translate(0,0)"/>
<path d="" fill="#3A5F47" transform="translate(0,0)"/>
<path d="" fill="#3A5B45" transform="translate(0,0)"/>
<path d="" fill="#385B46" transform="translate(0,0)"/>
<path d="" fill="#3B5E46" transform="translate(0,0)"/>
<path d="" fill="#385C48" transform="translate(0,0)"/>
<path d="" fill="#395C47" transform="translate(0,0)"/>
<path d="" fill="#395C45" transform="translate(0,0)"/>
<path d="" fill="#3D5F49" transform="translate(0,0)"/>
<path d="" fill="#3C5D45" transform="translate(0,0)"/>
<path d="" fill="#3A6048" transform="translate(0,0)"/>
<path d="" fill="#3B5C48" transform="translate(0,0)"/>
<path d="" fill="#3A5946" transform="translate(0,0)"/>
<path d="" fill="#3B5C47" transform="translate(0,0)"/>
<path d="" fill="#3C604A" transform="translate(0,0)"/>
<path d="" fill="#395D48" transform="translate(0,0)"/>
<path d="" fill="#3B6049" transform="translate(0,0)"/>
<path d="" fill="#3C5D49" transform="translate(0,0)"/>
<path d="" fill="#395A45" transform="translate(0,0)"/>
<path d="" fill="#3B5C49" transform="translate(0,0)"/>
<path d="" fill="#3C5C49" transform="translate(0,0)"/>
<path d="" fill="#3A604A" transform="translate(0,0)"/>
<path d="" fill="#3A5F48" transform="translate(0,0)"/>
<path d="" fill="#3A5E49" transform="translate(0,0)"/>
<path d="" fill="#395C47" transform="translate(0,0)"/>
<path d="" fill="#3B5E48" transform="translate(0,0)"/>
<path d="" fill="#3C5B47" transform="translate(0,0)"/>
<path d="" fill="#3C5B47" transform="translate(0,0)"/>
<path d="" fill="#3C5C47" transform="translate(0,0)"/>
<path d="" fill="#3C5C48" transform="translate(0,0)"/>
<path d="" fill="#3C5E49" transform="translate(0,0)"/>
<path d="" fill="#3C5D48" transform="translate(0,0)"/>
<path d="" fill="#3A5C49" transform="translate(0,0)"/>
<path d="" fill="#3B5F49" transform="translate(0,0)"/>
<path d="" fill="#3D5B49" transform="translate(0,0)"/>
<path d="" fill="#3C5E49" transform="translate(0,0)"/>
<path d="" fill="#3B5F49" transform="translate(0,0)"/>
<path d="" fill="#3A5D48" transform="translate(0,0)"/>
<path d="" fill="#3C5E4B" transform="translate(0,0)"/>
<path d="" fill="#3B5E49" transform="translate(0,0)"/>
<path d="" fill="#3C5D49" transform="translate(0,0)"/>
<path d="" fill="#3C5C47" transform="translate(0,0)"/>
<path d="" fill="#3B5D48" transform="translate(0,0)"/>
<path d="" fill="#3B5E48" transform="translate(0,0)"/>
<path d="" fill="#3C5F4B" transform="translate(0,0)"/>
<path d="" fill="#3D5B48" transform="translate(0,0)"/>
<path d="" fill="#395B47" transform="translate(0,0)"/>
<path d="" fill="#3A5E49" transform="translate(0,0)"/>
<path d="" fill="#3B5F49" transform="translate(0,0)"/>
<path d="" fill="#395B48" transform="translate(0,0)"/>
<path d="" fill="#3D5C49" transform="translate(0,0)"/>
<path d="" fill="#3A5D48" transform="translate(0,0)"/>
<path d="" fill="#3D5D49" transform="translate(0,0)"/>
<path d="" fill="#3B5F4A" transform="translate(0,0)"/>
<path d="" fill="#3C5E48" transform="translate(0,0)"/>
<path d="" fill="#3D5D48" transform="translate(0,0)"/>
<path d="" fill="#3C5C48" transform="translate(0,0)"/>
<path d="" fill="#395A48" transform="translate(0,0)"/>
<path d="" fill="#3D5D48" transform="translate(0,0)"/>
<path d="" fill="#3D5C48" transform="translate(0,0)"/>
<path d="" fill="#3E5D4A" transform="translate(0,0)"/>
<path d="" fill="#3B5E48" transform="translate(0,0)"/>
<path d="" fill="#3A5D4A" transform="translate(0,0)"/>
<path d="" fill="#395C49" transform="translate(0,0)"/>
<path d="" fill="#3B5D48" transform="translate(0,0)"/>
<path d="" fill="#395E47" transform="translate(0,0)"/>
<path d="" fill="#385C48" transform="translate(0,0)"/>
<path d="" fill="#3D5E49" transform="translate(0,0)"/>
<path d="" fill="#3F5C49" transform="translate(0,0)"/>
<path d="" fill="#3A5C48" transform="translate(0,0)"/>
<path d="" fill="#395C48" transform="translate(0,0)"/>
<path d="" fill="#395D48" transform="translate(0,0)"/>
<path d="" fill="#395E49" transform="translate(0,0)"/>
<path d="" fill="#3A5E49" transform="translate(0,0)"/>
<path d="" fill="#375A46" transform="translate(0,0)"/>
<path d="" fill="#395D47" transform="translate(0,0)"/>
<path d="" fill="#3A5B46" transform="translate(0,0)"/>
<path d="" fill="#3C5C48" transform="translate(0,0)"/>
<path d="" fill="#3D5C48" transform="translate(0,0)"/>
<path d="" fill="#3C5E48" transform="translate(0,0)"/>
<path d="" fill="#3B5D47" transform="translate(0,0)"/>
<path d="" fill="#3A5C48" transform="translate(0,0)"/>
<path d="" fill="#3B5E48" transform="translate(0,0)"/>
<path d="" fill="#3B5C46" transform="translate(0,0)"/>
<path d="" fill="#3B5E47" transform="translate(0,0)"/>
<path d="" fill="#3C5F49" transform="translate(0,0)"/>
<path d="" fill="#3A5D49" transform="translate(0,0)"/>
<path d="" fill="#3B5E49" transform="translate(0,0)"/>
<path d="" fill="#375C46" transform="translate(0,0)"/>
<path d="" fill="#3D5D49" transform="translate(0,0)"/>
<path d="" fill="#3A5E49" transform="translate(0,0)"/>
<path d="" fill="#3B5C46" transform="translate(0,0)"/>
<path d="" fill="#385D48" transform="translate(0,0)"/>
<path d="" fill="#385C47" transform="translate(0,0)"/>
<path d="" fill="#385B48" transform="translate(0,0)"/>
<path d="" fill="#3A5C48" transform="translate(0,0)"/>
<path d="" fill="#385D47" transform="translate(0,0)"/>
<path d="" fill="#3D5F49" transform="translate(0,0)"/>
<path d="" fill="#385E47" transform="translate(0,0)"/>
<path d="" fill="#3C6049" transform="translate(0,0)"/>
<path d="" fill="#3C5D49" transform="translate(0,0)"/>
<path d="" fill="#385B45" transform="translate(0,0)"/>
<path d="" fill="#3B5E4A" transform="translate(0,0)"/>
<path d="" fill="#395D47" transform="translate(0,0)"/>
<path d="" fill="#395F47" transform="translate(0,0)"/>
<path d="" fill="#385A46" transform="translate(0,0)"/>
<path d="" fill="#3B5F47" transform="translate(0,0)"/>
<path d="" fill="#395C47" transform="translate(0,0)"/>
<path d="" fill="#385C46" transform="translate(0,0)"/>
<path d="" fill="#385D48" transform="translate(0,0)"/>
<path d="" fill="#395D48" transform="translate(0,0)"/>
<path d="" fill="#385E48" transform="translate(0,0)"/>
<path d="" fill="#3B5D4A" transform="translate(0,0)"/>
<path d="" fill="#3A604A" transform="translate(0,0)"/>
<path d="" fill="#3A5F49" transform="translate(0,0)"/>
<path d="" fill="#3B6046" transform="translate(0,0)"/>
<path d="" fill="#395F49" transform="translate(0,0)"/>
<path d="" fill="#3C5F47" transform="translate(0,0)"/>
<path d="" fill="#3C5F48" transform="translate(0,0)"/>
<path d="" fill="#3B6049" transform="translate(0,0)"/>
<path d="" fill="#3C5E49" transform="translate(0,0)"/>
<path d="" fill="#385B47" transform="translate(0,0)"/>
<path d="" fill="#395A46" transform="translate(0,0)"/>
<path d="" fill="#3A5C49" transform="translate(0,0)"/>
<path d="" fill="#385D46" transform="translate(0,0)"/>
<path d="" fill="#3B6049" transform="translate(0,0)"/>
<path d="" fill="#3C614A" transform="translate(0,0)"/>
<path d="" fill="#3C6049" transform="translate(0,0)"/>
<path d="" fill="#3B5E49" transform="translate(0,0)"/>
<path d="" fill="#3A6048" transform="translate(0,0)"/>
<path d="" fill="#3B604B" transform="translate(0,0)"/>
<path d="" fill="#3C5D47" transform="translate(0,0)"/>
<path d="" fill="#395D47" transform="translate(0,0)"/>
<path d="" fill="#3C5D49" transform="translate(0,0)"/>
<path d="" fill="#3A5C48" transform="translate(0,0)"/>
<path d="" fill="#3A5D48" transform="translate(0,0)"/>
<path d="" fill="#3C604B" transform="translate(0,0)"/>
<path d="" fill="#3C5D46" transform="translate(0,0)"/>
<path d="" fill="#3A5F49" transform="translate(0,0)"/>
<path d="" fill="#3B5C46" transform="translate(0,0)"/>
<path d="" fill="#3C5F48" transform="translate(0,0)"/>
<path d="" fill="#3B5F47" transform="translate(0,0)"/>
<path d="" fill="#395F48" transform="translate(0,0)"/>
<path d="" fill="#3B5C49" transform="translate(0,0)"/>
<path d="" fill="#385C48" transform="translate(0,0)"/>
<path d="" fill="#385B44" transform="translate(0,0)"/>
<path d="" fill="#395C47" transform="translate(0,0)"/>
<path d="" fill="#3A5F49" transform="translate(0,0)"/>
<path d="" fill="#3A5F48" transform="translate(0,0)"/>
<path d="" fill="#395C46" transform="translate(0,0)"/>
<path d="" fill="#395C46" transform="translate(0,0)"/>
<path d="" fill="#395D47" transform="translate(0,0)"/>
<path d="" fill="#3A5E48" transform="translate(0,0)"/>
<path d="" fill="#3B624A" transform="translate(0,0)"/>
<path d="" fill="#55675B" transform="translate(0,0)"/>
</svg>
